<svg aria-hidden="true" fill="currentColor" xmlns="http://www.w3.org/2000/svg" viewBox="0 0 82 30" preserveAspectRatio="xMinYMin"><path d="M22.438.664C20.609 1.621 6.194 8.047 11.27 11.41c1.512 1.002 5.876 2.241 5.858 4.317-.017 1.923-3.431 4.148-4.717 5.141C8.803 23.655 4.855 26 1.073 28.533c-1.091.73.542 1.192 1.239.725 5.224-3.498 13.24-7.163 16.485-12.905 1.019-1.804-.542-3.513-2.147-4.14-2.999-1.171-5.583-1.867-2.797-5.096 2.277-2.639 6.359-3.901 9.395-5.489 1.175-.616.103-1.441-.81-.964z"></path><path d="M20.354 9.526c.026 3.24.354 6.445.846 9.645.065.426 2.012.003 1.932-.518-.492-3.2-.82-6.405-.846-9.645-.003-.356-1.937-.059-1.932.518zM20.629 7.871c.835 0 2.012-1.268.705-1.268-.835 0-2.012 1.268-.705 1.268z"></path><path d="M30.668 8.401c-3.746-.098-9.421 2.676-7.438 7.216 1.555 3.562 8.215.886 5.587-2.661l-.775.832c.875-.259 1.4-.751 2.163-1.208 1.12-.672-.588-.893-1.188-.533-.393.235-.787.693-1.221.822-.286.084-1.092.405-.775.832.519.701.893 2.022-.138 2.521-1.167.564-1.977-1.646-2.113-2.372-.525-2.803 2.83-4.453 5.137-4.392.701.017 2.067-1.023.761-1.057z"></path><path d="M30.334 9.377c-.016 2.191-.197 4.329-.846 6.43l1.938-.22c.351-2.303.633-4.593.335-6.917l-1.86.648c1.496 2.494 2.969 4.995 4.158 7.653.332.742 1.7.199 1.935-.369 1.064-2.57.463-5.488 1.798-7.971.458-.853-1.488-.682-1.811-.083-1.398 2.602-.816 5.596-1.925 8.273l1.935-.369c-1.229-2.749-2.755-5.335-4.302-7.914-.344-.574-1.947-.03-1.86.648.285 2.227-.006 4.417-.341 6.62-.13.856 1.743.411 1.938-.22.649-2.102.83-4.24.846-6.43.006-.859-1.933-.467-1.938.221z"></path><path d="M38.182 16.388c.677-2.686.841-5.565 2.369-7.953l-1.863.499c2.351 2.208 2.339 5.212 2.647 8.206.047.456 1.992.067 1.932-.518-.317-3.084-.359-6.115-2.767-8.376-.418-.393-1.606.098-1.863.499-1.529 2.387-1.693 5.267-2.369 7.953-.13.517 1.78.222 1.914-.31z"></path><path d="M37.636 14.275c1.768-.409 3.583-.403 5.387-.403a2.8 2.8 0 0 0 1.366-.366c.31-.183.264-.382-.103-.382-2.301.001-4.546.092-6.795.611-.147.034-.966.258-.894.529.075.277.891.045 1.039.011z"></path><path d="M43.197 8.68c-.178 2.458-.062 5.249.779 7.595.485 1.355 2.706.612 3.648.388 1.136-.271.971-.847-.155-.578-1.59.379-1.647-.436-1.919-1.771a22.57 22.57 0 0 1-.422-6.152c.019-.257-1.89-.047-1.931.518z"></path><path d="M46.919 8.172c.047 2.869.649 5.653 1.184 8.46.108.568 2.05.102 1.932-.518-.535-2.807-1.137-5.592-1.184-8.46-.008-.501-1.943-.156-1.932.518z"></path><path d="M49.14 11.335c2.155-1.281 4.55-2.056 6.768-3.215 1.147-.599-.617-.696-1.156-.414-2.218 1.159-4.61 1.933-6.768 3.215-1.115.663.623.731 1.156.414z"></path><path d="M47.34 12.063c1.793 1.817 3.367 3.717 5.742 4.796.812.369 2.236-.799 1.113-1.31-2.095-.952-3.508-2.74-5.087-4.34-.62-.627-2.447.166-1.768.854z"></path><path d="M54.365 10.746c-.389 2.667-.325 6.703 3.391 6.164 1.715-.249 3.331-1.275 3.699-3.037.359-1.719-.471-3.534-.76-5.203-.111-.642-2.052-.178-1.932.518.299 1.729 2.176 6.582-1.061 6.721-2.043.087-1.571-4.298-1.408-5.412.109-.743-1.836-.392-1.929.249z"></path><path d="M60.963 9.019c.173 2.422.472 4.833.496 7.265.01.997 1.963.685 1.954-.157-.025-2.552-.336-5.082-.519-7.625-.06-.856-1.996-.398-1.931.517z"></path><path d="M63.189 8.863c.39-.67 1.205-1.709 2.091-1.646 1.078.077.804 2.219.354 2.756-1.13 1.352-3.994 1.237-5.571 1.692-1.181.34-.84 1.638.347 1.295 2.513-.725 7.441-.748 7.589-4.333.071-1.708-1.048-2.882-2.729-2.797-1.673.085-3.131 1.461-3.924 2.826-.539.927 1.426.923 1.843.207z"></path><path d="M67.393 8.371c-.889 2.679-.303 5.657-1.795 8.147-.474.79 1.471.6 1.801.05 1.565-2.613.999-5.634 1.927-8.435.225-.679-1.716-.42-1.933.238z"></path><path d="M68.298 8.284c.734-.593 1.521-1.132 2.386-1.516 1.12-.498 1.713.163 2.008 1.242.835 3.05-2.977 2.317-4.818 2.181-.806-.06-2.033 1.102-.724 1.198 2.901.214 8.374.531 7.474-3.897-.859-4.222-6.025-1.123-7.897.39-.339.274-.172.671.206.768.485.123.991-.064 1.365-.366z"></path><path d="M73.69 8.119c-.997 1.741-2.513 4.073-1.59 6.112 1.045 2.31 3.79 1.268 5.661 1.033 1.101-.138 1.457-1.665.148-1.501-1.412.177-3.406 1.196-4.1-.568-.545-1.385 1.084-3.663 1.74-4.809.557-.973-1.41-1.052-1.859-.267z"></path><path d="M73.352 10.773c1.175-.324 2.379-.522 3.553-.846.176-.048.964-.268.88-.58-.083-.311-.876-.111-1.052-.062-1.175.324-2.379.522-3.553.846-.176.048-.964.268-.88.58.083.31.876.11 1.052.062zM74.596 7.779c1.755-.467 3.535-.81 5.322-1.135.384-.07.996-.235 1.087-.697.085-.437-.558-.54-.854-.486-1.961.357-3.918.721-5.846 1.234-1.172.311-.88 1.395.291 1.084z"></path></svg>