<?xml version="1.0" standalone="no"?>
<!DOCTYPE svg PUBLIC "-//W3C//DTD SVG 20010904//EN"
 "http://www.w3.org/TR/2001/REC-SVG-20010904/DTD/svg10.dtd">
<svg version="1.0" xmlns="http://www.w3.org/2000/svg"
 width="542.000000pt" height="542.000000pt" viewBox="0 0 542.000000 542.000000"
 preserveAspectRatio="xMidYMid meet">
<metadata>
Created by potrace 1.11, written by Peter Selinger 2001-2013
</metadata>
<g transform="translate(0.000000,542.000000) scale(0.100000,-0.100000)"
fill="#000000" stroke="none">
<path d="M3155 5004 c-77 -46 -145 -84 -151 -84 -6 0 -22 20 -35 44 -20 39
-34 51 -82 74 -4 2 -5 -8 -1 -22 7 -31 8 -31 -51 -6 -26 11 -49 20 -52 20 -2
0 5 -16 17 -36 12 -19 20 -37 18 -39 -2 -3 -64 7 -138 20 -73 14 -135 25 -138
25 -3 0 7 -13 23 -30 l29 -30 -100 -1 -99 0 57 -22 c31 -13 59 -25 62 -28 4
-3 -21 -27 -54 -53 -34 -26 -75 -67 -93 -92 -27 -39 -32 -43 -35 -25 -2 12 -6
21 -9 21 -17 0 -134 -81 -170 -117 -26 -27 -52 -44 -70 -46 -16 -2 -34 -7 -41
-11 -14 -9 -16 -56 -2 -56 17 0 11 -40 -11 -70 -15 -20 -20 -36 -15 -55 5 -20
1 -32 -21 -54 -36 -36 -57 -71 -43 -71 17 0 -42 -80 -69 -94 -14 -7 -43 -16
-63 -20 -28 -5 -38 -12 -38 -26 0 -10 -4 -21 -9 -25 -11 -6 -9 -44 3 -64 6 -9
2 -12 -15 -10 -28 3 -69 -9 -69 -21 0 -4 21 -31 47 -60 l47 -52 -23 -19 c-13
-11 -37 -19 -54 -19 l-31 0 28 -29 c16 -16 41 -35 57 -41 35 -15 36 -20 4 -50
-33 -31 -33 -68 0 -76 30 -8 32 -18 4 -37 l-20 -15 21 -45 22 -46 -41 -54
c-23 -29 -41 -59 -41 -65 0 -6 10 -18 23 -27 19 -12 25 -29 35 -99 10 -81 48
-180 67 -176 4 0 21 -32 37 -72 25 -60 30 -86 29 -148 -1 -41 -4 -84 -7 -94
-6 -17 -4 -17 25 4 31 21 33 22 46 4 8 -11 15 -22 15 -26 0 -4 20 -28 44 -55
l45 -48 -6 44 c-8 57 1 52 105 -59 l80 -85 -8 -50 c-9 -61 5 -171 26 -203 14
-22 109 -137 220 -268 58 -70 127 -114 176 -114 36 0 41 -4 75 -57 20 -32 58
-91 85 -132 45 -68 48 -77 37 -100 -7 -15 -14 -91 -17 -178 -4 -134 -7 -153
-22 -158 -46 -15 -97 -66 -134 -133 -21 -39 -43 -69 -48 -66 -4 3 -8 0 -8 -5
0 -6 5 -11 11 -11 5 0 7 -5 4 -10 -4 -6 -10 -8 -15 -5 -5 3 -14 -3 -19 -14
-16 -29 -13 -38 4 -15 8 10 15 15 15 10 0 -5 6 -3 14 3 11 10 17 8 26 -6 10
-16 11 -14 7 10 -2 15 -1 30 3 32 4 3 19 28 34 57 36 74 46 84 105 117 l52 28
2 156 c1 102 6 160 14 168 8 8 11 -16 10 -97 0 -60 6 -158 13 -217 12 -97 11
-109 -3 -120 -9 -7 -17 -30 -19 -52 l-3 -40 -33 55 c-21 35 -31 46 -28 30 3
-14 7 -52 11 -86 l6 -61 -68 13 c-59 11 -70 10 -85 -2 -14 -14 -17 -14 -26 2
-7 12 -11 13 -17 4 -4 -6 -2 -17 4 -23 6 -6 11 -16 11 -22 0 -5 -5 -3 -10 5
-14 21 -13 -3 2 -35 7 -16 14 -21 18 -14 5 7 9 6 13 -4 4 -10 0 -14 -11 -13
-9 2 -18 8 -20 14 -2 7 -7 10 -12 7 -4 -3 -7 3 -6 12 0 9 -6 18 -14 20 -9 3
-11 1 -5 -4 10 -8 18 -53 10 -53 -3 0 -29 12 -60 27 -43 21 -58 24 -67 15 -9
-9 -8 -20 7 -49 11 -21 21 -41 23 -45 2 -5 -2 -8 -8 -8 -7 0 -35 -11 -63 -25
l-51 -26 -50 22 c-58 25 -114 22 -173 -8 -28 -15 -38 -26 -38 -44 0 -23 4 -24
68 -27 l69 -3 -74 -38 c-83 -44 -135 -70 -193 -97 -21 -11 -62 -37 -89 -58
-27 -22 -104 -73 -169 -113 -66 -41 -137 -87 -157 -103 -31 -24 -47 -30 -89
-30 -56 0 -65 -10 -25 -28 33 -16 22 -32 -21 -32 -37 0 -48 -9 -36 -29 5 -8
-2 -23 -18 -40 -20 -21 -31 -25 -48 -19 -24 8 -43 -13 -43 -47 0 -11 -6 -14
-25 -9 -35 9 -58 -12 -44 -38 6 -11 7 -18 2 -16 -4 3 -23 -10 -41 -28 l-33
-34 2121 0 2120 0 0 868 0 869 -36 1 c-51 2 -53 9 -5 17 23 4 41 11 41 16 0 5
-10 7 -22 4 -13 -3 -72 -16 -131 -30 -60 -14 -110 -25 -112 -25 -2 0 -12 16
-24 35 -27 46 -73 65 -154 65 -62 0 -162 -23 -181 -41 -15 -13 -2 -11 76 12
85 26 174 23 215 -7 35 -26 40 -44 13 -44 -11 0 -32 12 -46 28 l-24 27 -21
-28 c-20 -26 -24 -27 -114 -27 -94 0 -105 5 -109 44 -1 5 -6 11 -13 13 -6 2
-10 -3 -8 -14 2 -10 4 -18 5 -18 1 0 3 -11 6 -24 3 -19 2 -21 -9 -12 -8 6 -14
25 -15 42 -1 44 -47 159 -91 226 -40 62 -103 130 -162 179 l-37 29 6 102 c4
93 7 103 26 109 64 19 118 111 142 241 8 48 27 148 41 221 17 92 24 156 22
210 -4 71 -8 83 -47 147 -24 39 -63 105 -87 148 l-43 77 54 0 c49 0 68 10 45
25 -5 3 -24 24 -42 46 -26 33 -29 40 -13 36 10 -3 37 -8 59 -12 l41 -6 -4 40
c-4 36 -2 41 16 41 30 0 35 -15 17 -52 l-16 -33 31 38 c19 22 41 37 54 37 20
0 34 13 86 85 13 18 12 18 -14 -2 -16 -13 -32 -23 -36 -23 -10 0 -44 79 -37
86 3 3 22 7 42 8 20 2 44 10 52 19 15 14 13 21 -18 73 -19 32 -63 88 -99 125
l-66 67 30 6 29 6 -39 28 c-38 27 -96 55 -140 67 -14 4 -30 24 -44 56 l-22 51
-39 -6 c-22 -4 -46 -7 -52 -9 -20 -3 -64 98 -78 175 -7 40 -13 74 -15 76 -1 2
-20 -6 -43 -18 -45 -22 -50 -17 -24 28 14 25 15 33 4 61 -8 17 -20 31 -28 31
-13 0 -14 10 -8 56 l7 56 -67 -51 c-36 -28 -69 -51 -73 -51 -4 0 -24 37 -45
83 -48 104 -94 167 -155 212 -26 19 -49 35 -52 35 -3 0 -3 -21 -1 -47 l3 -47
-63 53 c-34 29 -84 63 -110 76 -40 21 -48 22 -53 9 -5 -13 -13 -12 -53 10 -63
34 -101 47 -105 37 -2 -5 -23 -5 -48 -2 -32 5 -52 3 -69 -8 l-24 -15 7 37 c4
20 3 37 -1 36 -4 0 -71 -38 -148 -85z m195 -980 c-39 -17 -67 -40 -81 -66 -15
-28 10 -22 75 17 66 40 67 40 60 21 -5 -12 1 -12 43 0 33 11 68 13 114 9 107
-10 112 -13 168 -97 29 -43 66 -88 83 -102 26 -20 30 -27 20 -39 -19 -22 -4
-44 33 -51 50 -10 79 -37 72 -67 -5 -20 -18 -29 -54 -40 -27 -8 -48 -18 -48
-24 0 -5 36 -12 80 -15 86 -6 112 -15 97 -33 -5 -7 -8 -20 -7 -29 4 -22 -13
-22 -230 -5 l-150 12 55 31 c30 18 58 30 63 27 4 -2 7 -16 8 -31 0 -24 1 -25
9 -7 5 11 9 30 9 43 1 12 15 35 33 51 32 28 32 29 14 55 -33 52 -76 41 -76
-19 0 -27 -9 -40 -52 -77 -64 -54 -107 -83 -114 -75 -11 11 -82 -17 -255 -99
-97 -46 -261 -116 -365 -157 -281 -111 -504 -220 -571 -280 -13 -11 -32 -39
-43 -62 -11 -22 -46 -72 -77 -110 l-58 -70 -8 54 c-6 36 -5 62 2 78 8 16 8 30
1 43 -16 29 -12 48 5 26 17 -23 23 -19 35 23 10 35 -2 50 -25 31 -13 -11 -15
-6 -15 33 0 53 13 66 40 42 10 -9 24 -14 29 -10 14 8 14 42 1 50 -17 11 -11
24 30 69 22 23 37 46 33 49 -32 33 -151 -69 -173 -147 -16 -58 -9 -140 15
-166 21 -23 16 -32 -20 -32 -30 0 -30 -8 -10 -97 9 -35 14 -65 12 -67 -2 -2
-16 9 -31 25 -57 59 -84 262 -50 369 19 59 62 114 112 146 34 21 36 25 33 73
-3 67 17 112 68 147 38 27 44 28 80 17 55 -16 191 -26 191 -14 0 6 -20 18 -44
27 -24 9 -52 26 -61 36 -18 19 -17 20 6 20 13 0 31 4 39 10 11 7 20 -1 37 -30
27 -46 70 -65 111 -49 l27 11 -45 14 c-26 7 -57 25 -70 40 -25 25 -25 26 -5
41 64 47 175 78 190 52 4 -5 15 -9 26 -9 12 0 19 -7 19 -18 0 -14 -7 -17 -40
-14 -23 3 -40 0 -40 -6 0 -6 -16 -16 -35 -23 -19 -7 -34 -18 -32 -24 4 -12 72
-19 95 -10 14 5 14 7 2 15 -11 7 -3 10 27 10 23 0 44 -4 48 -10 4 -6 15 -5 30
2 l24 11 -26 33 c-40 53 -25 61 104 57 96 -4 112 -2 141 16 61 39 34 87 -42
76 -35 -6 -46 -4 -46 6 0 7 -10 23 -22 36 -34 36 -11 43 110 36 l102 -6 0 57
c0 52 3 60 32 87 41 37 105 69 138 69 23 -1 22 -2 -10 -16z m380 -55 c0 -6 -4
-7 -10 -4 -5 3 -10 11 -10 16 0 6 5 7 10 4 6 -3 10 -11 10 -16z m57 -38 c-10
-12 -9 -13 1 -7 9 5 15 1 19 -13 3 -11 9 -18 14 -15 5 3 8 0 7 -7 -2 -7 8 -18
20 -25 34 -17 45 -31 38 -43 -11 -18 -59 13 -105 66 -22 27 -41 50 -41 53 0 3
13 6 29 5 24 0 27 -2 18 -14z m139 -139 c-3 -3 2 -11 12 -19 9 -8 11 -11 3 -7
-10 5 -13 3 -8 -9 5 -13 2 -14 -24 -5 -28 9 -29 12 -14 27 8 10 12 21 8 25 -4
4 1 4 10 0 10 -3 15 -9 13 -12z m-956 -42 c0 -4 -8 -11 -17 -15 -16 -6 -16 -8
6 -26 l23 -19 -24 0 c-14 0 -33 9 -43 20 -10 11 -23 20 -30 20 -6 0 -20 6 -30
14 -18 13 -16 15 20 34 40 20 40 20 67 0 16 -11 28 -23 28 -28z m-150 -49 c0
-11 -5 -10 -20 4 -15 14 -17 20 -8 26 13 8 28 -7 28 -30z m1285 -283 c14 -42
22 -204 11 -215 -3 -4 -6 11 -6 33 0 21 -5 56 -10 76 -13 45 -44 57 -165 65
-110 7 -181 -12 -340 -92 -134 -67 -214 -120 -248 -167 -18 -24 -19 -30 -7
-60 7 -18 30 -55 50 -83 20 -27 38 -54 40 -60 6 -18 132 -95 174 -106 60 -16
182 -6 241 20 27 12 73 40 103 63 52 39 54 39 32 10 -13 -17 -27 -29 -32 -26
-4 3 -8 -2 -8 -10 0 -9 -8 -16 -17 -16 -9 0 -14 -3 -10 -6 20 -21 -95 -74
-183 -84 l-55 -7 52 -2 c152 -4 355 124 413 261 14 32 28 58 32 58 9 0 116
-147 138 -190 9 -19 25 -59 34 -88 10 -28 22 -50 26 -47 5 3 12 -17 16 -46 4
-31 10 -46 14 -38 4 8 3 45 -2 83 -12 86 -8 132 11 128 10 -2 12 5 8 28 -6 29
-5 30 16 19 12 -6 30 -18 40 -27 15 -14 17 -13 17 4 0 10 -9 39 -20 63 -33 72
-22 88 41 55 l30 -15 -17 33 c-9 18 -30 52 -45 75 -25 36 -39 83 -24 83 14 0
113 -44 137 -61 26 -19 28 -19 28 -3 0 10 -14 42 -30 71 -33 59 -21 61 33 7
55 -55 57 -109 12 -354 -14 -74 -30 -162 -36 -195 -20 -113 -72 -197 -129
-210 -27 -6 -28 -9 -34 -88 -3 -45 -8 -143 -12 -217 -10 -214 -29 -253 -287
-578 l-129 -163 -102 -49 c-130 -63 -253 -93 -356 -88 -70 3 -88 8 -184 56
-140 69 -296 175 -373 252 -54 53 -152 189 -233 325 -13 22 -29 43 -35 47 -6
3 -30 34 -54 67 -25 34 -46 61 -48 61 -5 0 3 -14 39 -67 l29 -43 -39 0 c-34 0
-47 8 -98 58 -59 56 -223 250 -256 301 -9 14 -20 53 -23 87 -7 58 -6 61 16 67
25 7 39 -6 39 -37 0 -11 9 -38 19 -60 10 -23 26 -64 36 -93 9 -28 23 -57 31
-63 18 -16 18 -8 0 35 -16 39 -12 44 16 18 11 -10 18 -31 19 -57 1 -41 1 -41
13 -14 6 15 20 34 31 41 18 14 18 18 2 148 -13 99 -24 147 -42 182 -23 46 -19
65 7 29 21 -27 83 -71 140 -97 110 -51 314 -23 437 61 20 13 49 24 66 24 16 0
36 4 44 9 25 16 41 168 22 215 -5 14 -11 4 -24 -40 -22 -79 -73 -161 -124
-200 -65 -49 -140 -69 -264 -69 -101 0 -108 1 -180 37 -41 20 -90 54 -109 75
-37 40 -82 106 -93 136 -10 27 -32 20 -71 -23 -30 -34 -37 -37 -45 -23 -6 12
1 31 30 73 22 32 39 65 39 74 0 30 39 93 75 123 64 54 194 112 275 124 41 6
80 14 86 18 6 3 45 29 86 57 97 65 278 133 375 141 37 3 123 16 190 29 68 13
135 24 150 24 27 -1 26 -2 -12 -21 -66 -33 -187 -119 -168 -119 5 0 18 8 29
18 123 108 372 187 600 191 76 1 82 0 89 -21z m-677 -361 c4 -20 -25 -34 -40
-19 -15 15 -1 44 19 40 10 -2 19 -11 21 -21z m-1159 -282 c-21 -35 -29 -42
-29 -26 0 9 39 61 45 61 3 0 -5 -16 -16 -35z m8 -287 c-3 -8 -6 -5 -6 6 -1 11
2 17 5 13 3 -3 4 -12 1 -19z m2191 -645 c52 -194 55 -413 9 -556 -29 -90 -90
-198 -140 -245 -30 -29 -38 -32 -56 -23 -19 11 -24 5 -60 -67 -51 -102 -69
-111 -151 -84 -33 12 -88 41 -121 67 -34 25 -68 45 -77 46 -10 0 -93 1 -187 2
-192 3 -231 13 -344 88 -48 32 -71 57 -114 127 -78 123 -119 200 -115 212 1 5
31 -8 66 -30 34 -22 112 -65 173 -97 l111 -58 111 1 c120 1 188 17 309 70 113
50 159 86 243 189 64 79 172 200 143 162 -3 -5 -4 -16 0 -25 4 -11 1 -14 -11
-9 -9 3 -21 -1 -28 -11 -11 -14 -11 -15 1 -5 9 9 19 9 33 2 13 -8 17 -8 13 -1
-3 6 -2 13 4 17 6 4 8 10 6 14 -3 4 1 8 8 8 8 0 12 -7 9 -16 -3 -12 -2 -12 7
2 6 9 8 22 5 27 -3 6 -2 10 4 10 5 0 15 26 21 58 7 31 24 77 39 102 15 25 33
60 40 77 7 18 17 31 21 28 4 -3 17 -40 28 -82z m309 -165 c-3 -8 -6 -5 -6 6
-1 11 2 17 5 13 3 -3 4 -12 1 -19z m-2114 -778 c3 -11 1 -18 -3 -15 -5 3 -11
1 -15 -5 -3 -5 -1 -10 5 -10 6 0 8 -5 5 -11 -9 -13 -15 -7 -20 20 -2 12 0 19
6 16 5 -4 9 -2 9 4 0 5 -8 12 -17 14 -14 4 -14 5 3 6 14 1 24 -6 27 -19z m-5
-95 c-3 -3 -9 2 -12 12 -6 14 -5 15 5 6 7 -7 10 -15 7 -18z m22 -85 c0 -5 -2
-10 -4 -10 -3 0 -8 5 -11 10 -3 6 -1 10 4 10 6 0 11 -4 11 -10z"/>
<path d="M3417 3936 c-53 -19 -79 -45 -75 -75 2 -21 8 -25 27 -23 14 1 31 8
39 14 12 10 11 13 -4 18 -16 6 -16 8 7 23 14 9 59 26 100 36 l74 19 -65 1
c-36 0 -82 -6 -103 -13z"/>
<path d="M3620 3921 c0 -5 6 -11 13 -14 15 -5 -8 -37 -28 -37 -18 0 -116 -42
-111 -47 9 -10 151 20 169 35 20 18 22 43 5 60 -14 14 -48 16 -48 3z"/>
<path d="M3257 3914 c-9 -10 4 -34 19 -34 8 0 14 9 14 20 0 19 -19 27 -33 14z"/>
<path d="M3668 3836 c-15 -13 -46 -27 -69 -31 -29 -5 -38 -10 -28 -16 22 -14
60 -10 104 10 43 19 65 18 65 -5 0 -18 14 -18 30 1 10 12 9 20 -4 40 -21 32
-62 32 -98 1z"/>
<path d="M3589 3726 c22 -26 67 -39 91 -26 30 16 15 26 -48 33 -45 5 -52 4
-43 -7z"/>
<path d="M3450 3686 c0 -12 110 -58 125 -52 20 7 29 -12 14 -30 -16 -20 -5
-28 19 -15 26 14 37 48 23 65 -6 7 -41 16 -79 19 -37 2 -75 8 -84 12 -10 4
-18 4 -18 1z"/>
<path d="M3140 3640 c-54 -22 -112 -40 -135 -40 -34 -1 -37 -2 -21 -11 26 -16
91 -5 215 37 124 41 144 54 81 54 -29 -1 -80 -16 -140 -40z"/>
<path d="M3351 3604 c8 -9 33 -25 56 -35 49 -21 52 -30 21 -52 l-23 -16 27 0
c28 -1 58 22 58 44 0 22 -29 45 -56 45 -14 0 -41 7 -61 15 -33 14 -34 14 -22
-1z"/>
<path d="M3210 3576 c0 -17 24 -53 48 -73 26 -22 26 -22 7 -43 -13 -15 -26
-19 -43 -15 -21 5 -22 4 -12 -15 23 -43 100 -9 100 45 0 17 -9 29 -29 40 -16
8 -39 27 -50 41 -12 15 -21 24 -21 20z"/>
<path d="M2840 3518 c-39 -20 -48 -31 -70 -84 -30 -75 -48 -97 -72 -91 -10 3
-16 1 -12 -4 18 -30 86 13 104 65 6 19 33 55 60 80 69 64 66 72 -10 34z"/>
<path d="M2914 3465 c-7 -19 -14 -43 -14 -54 0 -10 -8 -29 -19 -42 -17 -21
-21 -22 -36 -9 -16 13 -18 13 -13 0 2 -8 19 -16 36 -18 38 -4 58 22 76 102 11
48 11 56 -1 56 -8 0 -21 -16 -29 -35z"/>
<path d="M3065 3470 c20 -39 19 -56 -5 -80 -11 -11 -20 -22 -20 -25 0 -10 46
-5 58 7 20 20 14 73 -11 101 -30 36 -41 34 -22 -3z"/>
<path d="M2505 3431 c-29 -17 -124 -121 -111 -121 10 0 130 90 144 108 27 35
12 41 -33 13z"/>
<path d="M2608 3418 c-18 -19 -46 -51 -62 -72 -20 -27 -34 -36 -48 -33 -12 4
-18 1 -15 -6 13 -39 106 20 146 92 30 54 21 63 -21 19z"/>
<path d="M2300 3404 c0 -3 5 -14 10 -25 11 -20 65 -28 58 -8 -4 11 -68 42 -68
33z"/>
<path d="M2290 3330 c-12 -8 -10 -10 8 -10 13 0 20 4 17 10 -7 12 -6 12 -25 0z"/>
<path d="M2473 3245 c-3 -9 -3 -19 1 -22 7 -7 36 16 36 28 0 15 -30 10 -37 -6z"/>
<path d="M2560 3225 c0 -9 5 -15 11 -13 6 2 11 8 11 13 0 5 -5 11 -11 13 -6 2
-11 -4 -11 -13z"/>
<path d="M2115 3148 c-9 -25 -35 -143 -35 -160 0 -10 4 -18 9 -18 4 0 11 26
15 59 4 32 13 67 21 77 8 10 15 27 15 37 0 20 -18 23 -25 5z"/>
<path d="M4581 3074 c0 -11 3 -14 6 -6 3 7 2 16 -1 19 -3 4 -6 -2 -5 -13z"/>
<path d="M2735 3060 c-133 -13 -275 -82 -331 -162 -19 -25 -20 -35 -11 -69 27
-110 150 -242 250 -270 66 -18 184 -16 247 5 68 24 143 96 186 181 29 57 30
66 30 170 l-1 110 -37 18 c-44 22 -207 30 -333 17z"/>
<path d="M4594 3011 c3 -18 6 -74 6 -123 0 -63 3 -87 11 -82 16 10 7 211 -11
227 -10 10 -11 6 -6 -22z"/>
<path d="M3380 2872 c0 -13 105 -109 159 -147 l43 -29 16 22 c10 11 28 26 42
31 23 9 22 10 -13 10 -50 1 -152 45 -204 88 -24 19 -43 30 -43 25z"/>
<path d="M4498 2853 c6 -10 13 -37 17 -60 6 -37 4 -43 -17 -54 -26 -13 -38
-28 -38 -46 0 -7 11 -1 25 12 13 14 31 25 40 25 9 0 15 9 15 23 0 33 -30 117
-41 117 -6 0 -6 -7 -1 -17z"/>
<path d="M3552 2583 c2 -4 10 -21 18 -38 8 -16 15 -31 15 -33 1 -1 18 4 39 11
l37 13 -57 27 c-31 15 -54 24 -52 20z"/>
<path d="M3698 2438 c-13 -29 -14 -37 -4 -29 13 11 31 60 24 66 -2 2 -11 -15
-20 -37z"/>
<path d="M3574 2402 c-23 -16 -86 -92 -71 -86 9 3 28 21 42 40 18 24 34 34 53
34 21 0 24 2 12 10 -18 12 -22 12 -36 2z"/>
<path d="M4268 2264 c-3 -42 -2 -90 2 -107 5 -21 8 4 9 76 1 59 -1 107 -3 107
-2 0 -6 -34 -8 -76z"/>
<path d="M3245 2304 l-40 -13 60 1 c33 0 83 -2 110 -5 41 -5 43 -5 12 2 -21 4
-43 13 -50 20 -14 14 -41 13 -92 -5z"/>
<path d="M4071 2242 c-1 -53 3 -81 9 -77 11 7 11 85 0 130 -5 22 -8 6 -9 -53z"/>
<path d="M3938 2222 c-42 -24 -46 -29 -41 -58 4 -27 -1 -38 -46 -83 -27 -28
-57 -51 -64 -51 -8 0 -20 -7 -27 -15 -7 -9 -19 -14 -26 -11 -13 5 -72 -21 -84
-35 -9 -12 -82 -39 -90 -34 -5 3 -11 1 -15 -4 -9 -16 -93 -25 -109 -12 -9 7
-17 8 -20 2 -3 -5 -40 -8 -82 -7 -79 2 -76 0 -118 58 -11 16 -19 17 -69 7 -32
-7 -57 -16 -57 -20 0 -26 80 -53 206 -68 68 -8 96 -7 177 10 193 39 359 111
439 190 35 35 44 41 38 23 -13 -32 -37 -70 -79 -124 -20 -24 -30 -40 -23 -36
34 20 104 133 123 197 29 95 25 104 -33 71z"/>
<path d="M3555 2070 c-33 -17 -49 -27 -36 -24 35 9 129 54 111 53 -8 0 -42
-13 -75 -29z"/>
<path d="M3448 2033 c7 -3 16 -2 19 1 4 3 -2 6 -13 5 -11 0 -14 -3 -6 -6z"/>
<path d="M2948 1739 c61 -63 113 -111 117 -108 6 7 -197 211 -217 218 -6 2 39
-47 100 -110z"/>
<path d="M3245 1835 c17 -8 46 -14 65 -13 34 0 34 0 -9 9 -23 4 -53 11 -65 14
-12 2 -8 -2 9 -10z"/>
<path d="M3593 1768 c-23 -4 -54 -14 -70 -23 l-28 -16 35 7 c19 4 64 13 100
19 53 9 59 12 35 16 -16 3 -49 1 -72 -3z"/>
<path d="M2570 1081 c-14 -5 -58 -24 -97 -45 -40 -20 -79 -36 -88 -36 -8 0
-58 -22 -111 -50 -53 -27 -109 -50 -124 -50 -39 0 -79 -36 -124 -113 -21 -36
-46 -73 -55 -81 -10 -9 -48 -20 -85 -24 -62 -8 -71 -12 -119 -58 -29 -28 -70
-62 -92 -76 -22 -14 -74 -55 -115 -91 -41 -37 -87 -69 -102 -72 -16 -3 -42 -8
-59 -11 -25 -5 -34 -15 -50 -52 -24 -56 -70 -107 -120 -132 -26 -14 -41 -31
-54 -62 -9 -23 -33 -60 -53 -83 -36 -40 -36 -40 -13 -43 30 -5 86 56 101 109
7 26 19 40 40 49 40 17 114 98 131 144 13 37 16 39 89 51 25 4 59 26 114 76
44 38 96 79 115 91 20 12 61 45 91 73 51 49 59 53 113 57 72 6 102 27 145 104
42 75 81 116 102 109 9 -3 65 20 124 50 59 30 114 55 121 55 19 0 197 87 215
105 12 13 12 15 0 14 -8 0 -26 -4 -40 -8z"/>
<path d="M2623 1021 c0 -11 5 -18 9 -15 4 3 5 11 1 19 -7 21 -12 19 -10 -4z"/>
</g>
</svg>
