<?xml version="1.0" standalone="no"?>
<!DOCTYPE svg PUBLIC "-//W3C//DTD SVG 20010904//EN"
 "http://www.w3.org/TR/2001/REC-SVG-20010904/DTD/svg10.dtd">
<svg version="1.0" xmlns="http://www.w3.org/2000/svg"
 width="700.000000pt" height="700.000000pt" viewBox="0 0 700.000000 700.000000"
 preserveAspectRatio="xMidYMid meet">
<metadata>
Created by potrace 1.14, written by Peter Selinger 2001-2017
</metadata>
<g transform="translate(0.000000,700.000000) scale(0.100000,-0.100000)"
fill="#000000" stroke="none">
<path d="M0 3500 l0 -3500 3500 0 3500 0 0 3500 0 3500 -3500 0 -3500 0 0
-3500z m4680 1860 c333 -86 599 -353 682 -687 18 -70 22 -117 22 -228 0 -204
-37 -338 -140 -501 l-54 -87 19 -52 c50 -133 65 -329 37 -477 -67 -352 -353
-638 -701 -703 -47 -9 -104 -15 -127 -13 l-43 3 -3 143 c-2 109 0 143 10 146
7 2 51 10 98 19 124 24 200 65 296 161 86 86 129 156 159 259 20 69 22 214 5
289 -37 158 -162 313 -315 388 -94 47 -176 60 -383 60 -137 0 -184 3 -187 13
-3 6 -11 61 -20 120 -28 204 -81 313 -220 452 -128 128 -247 193 -404 221
-254 45 -495 -31 -679 -216 -121 -120 -188 -264 -215 -458 -8 -57 -19 -108
-25 -114 -6 -6 -50 -14 -99 -19 -191 -18 -338 -101 -443 -252 -70 -98 -100
-197 -100 -325 0 -173 48 -290 170 -414 59 -60 93 -85 151 -112 102 -47 115
-50 124 -29 3 10 45 122 92 248 47 127 91 240 99 253 14 22 15 22 304 22 259
0 290 -2 290 -16 0 -9 -99 -201 -220 -427 -121 -226 -220 -414 -220 -419 0 -4
90 -8 200 -8 162 0 202 -3 206 -14 3 -8 -156 -224 -387 -522 -300 -390 -397
-510 -415 -512 -13 -2 -24 1 -24 7 0 5 54 170 120 367 66 196 120 361 120 366
0 4 -80 8 -177 8 -189 0 -223 4 -223 26 0 7 21 66 46 131 25 65 52 134 59 154
l13 36 -84 32 c-251 96 -459 334 -530 606 -27 105 -25 332 5 440 78 287 298
523 573 615 l82 27 18 69 c105 384 464 696 867 754 104 16 320 7 411 -15 35
-9 104 -32 153 -51 l88 -36 53 51 c223 210 566 298 866 221z m-1178 -2188 c37
-35 42 -45 46 -95 3 -45 0 -62 -17 -90 -56 -92 -209 -89 -257 5 -35 68 -8 169
54 203 15 8 51 14 80 15 48 0 57 -4 94 -38z m570 -296 c55 -36 73 -121 40
-186 -65 -130 -264 -92 -279 53 -12 124 132 203 239 133z m-606 -327 c24 -11
52 -35 64 -53 24 -40 27 -114 5 -156 -37 -72 -153 -96 -220 -46 -45 35 -57 59
-57 116 0 55 21 101 59 128 55 38 89 41 149 11z m597 -316 c31 -16 67 -82 67
-123 0 -14 -9 -44 -20 -68 -15 -33 -29 -47 -62 -62 -55 -25 -82 -25 -134 1
-31 15 -48 32 -63 63 -25 50 -26 75 -7 120 36 86 129 116 219 69z m-585 -343
c75 -46 98 -158 45 -221 -47 -55 -124 -74 -181 -45 -100 52 -115 175 -31 251
33 30 46 35 87 35 29 0 59 -8 80 -20z"/>
<path d="M4355 5071 c-120 -20 -191 -50 -287 -121 l-57 -43 57 -61 c100 -107
188 -262 227 -398 l19 -65 105 -6 c212 -12 371 -74 534 -210 26 -22 49 -38 51
-36 13 15 38 78 56 140 25 91 27 247 5 334 -55 214 -243 401 -455 453 -64 16
-196 22 -255 13z"/>
</g>
</svg>
