<svg style="display:none;"><symbol viewBox="0 0 32 32" id="icon-arrow-down"><title>arrow-down</title> <g id="arrow-down-icomoon-ignore"> <line stroke-width="1" x1="" y1="" x2="" y2="" opacity=""/> </g> <path d="M32 16c0-8.837-7.163-16-16-16s-16 7.163-16 16 7.163 16 16 16 16-7.163 16-16zM3 16c0-7.18 5.82-13 13-13s13 5.82 13 13-5.82 13-13 13-13-5.82-13-13zM17.414 25.414l8-8c0.781-0.781 0.781-2.047 0-2.828s-2.047-0.781-2.828 0l-4.586 4.586v-11.172c0-1.105-0.895-2-2-2s-2 0.895-2 2v11.172l-4.586-4.586c-0.781-0.781-2.047-0.781-2.829 0-0.391 0.391-0.586 0.902-0.586 1.414s0.195 1.024 0.586 1.414l8 8c0.781 0.781 2.047 0.781 2.828 0z"/> </symbol><symbol viewBox="0 0 32 32" id="icon-arrow-left"><title>arrow-left</title> <g id="arrow-left-icomoon-ignore"> <line stroke-width="1" x1="" y1="" x2="" y2="" opacity=""/> </g> <path d="M12.586 4.586l-10 10c-0.781 0.781-0.781 2.047 0 2.828l10 10c0.781 0.781 2.047 0.781 2.828 0s0.781-2.047 0-2.828l-6.586-6.586h19.172c1.105 0 2-0.895 2-2s-0.895-2-2-2h-19.172l6.586-6.586c0.39-0.391 0.586-0.902 0.586-1.414s-0.195-1.024-0.586-1.414c-0.781-0.781-2.047-0.781-2.828 0z"/> </symbol><symbol viewBox="0 0 32 32" id="icon-arrow-right"><title>arrow-right</title> <g id="arrow-right-icomoon-ignore"> <line stroke-width="1" x1="" y1="" x2="" y2="" opacity=""/> </g> <path d="M19.414 27.414l10-10c0.781-0.781 0.781-2.047 0-2.828l-10-10c-0.781-0.781-2.047-0.781-2.828 0s-0.781 2.047 0 2.828l6.586 6.586h-19.172c-1.105 0-2 0.895-2 2s0.895 2 2 2h19.172l-6.586 6.586c-0.39 0.39-0.586 0.902-0.586 1.414s0.195 1.024 0.586 1.414c0.781 0.781 2.047 0.781 2.828 0z"/> </symbol><symbol viewBox="0 0 32 32" id="icon-arrow-up"><title>arrow-up</title> <g id="arrow-up-icomoon-ignore"> <line stroke-width="1" x1="" y1="" x2="" y2="" opacity=""/> </g> <path d="M16 0l-16 16h10v16l12 0v-16h10z"/> </symbol><symbol viewBox="0 0 32 32" id="icon-bookmark"><title>bookmark</title> <g id="bookmark-icomoon-ignore"> <line stroke-width="1" x1="" y1="" x2="" y2="" opacity=""/> </g> <path d="M6 0v32l10-10 10 10v-32z"/> </symbol><symbol viewBox="0 0 32 32" id="icon-camera"><title>camera</title> <g id="camera-icomoon-ignore"> <line stroke-width="1" x1="" y1="" x2="" y2="" opacity=""/> </g> <path d="M9.5 19c0 3.59 2.91 6.5 6.5 6.5s6.5-2.91 6.5-6.5-2.91-6.5-6.5-6.5-6.5 2.91-6.5 6.5zM30 8h-7c-0.5-2-1-4-3-4h-8c-2 0-2.5 2-3 4h-7c-1.1 0-2 0.9-2 2v18c0 1.1 0.9 2 2 2h28c1.1 0 2-0.9 2-2v-18c0-1.1-0.9-2-2-2zM16 27.875c-4.902 0-8.875-3.973-8.875-8.875s3.973-8.875 8.875-8.875c4.902 0 8.875 3.973 8.875 8.875s-3.973 8.875-8.875 8.875zM30 14h-4v-2h4v2z"/> </symbol><symbol viewBox="0 0 32 32" id="icon-disk"><title>disk</title> <g id="disk-icomoon-ignore"> <line stroke-width="1" x1="" y1="" x2="" y2="" opacity=""/> </g> <path d="M28 0h-28v32h32v-28l-4-4zM16 4h4v8h-4v-8zM28 28h-24v-24h2v10h18v-10h2.343l1.657 1.657v22.343z"/> </symbol><symbol viewBox="0 0 32 32" id="icon-earth"><title>earth</title> <g id="earth-icomoon-ignore"> <line stroke-width="1" x1="" y1="" x2="" y2="" opacity=""/> </g> <path d="M27.314 4.686c3.022 3.022 4.686 7.040 4.686 11.314s-1.664 8.292-4.686 11.314c-3.022 3.022-7.040 4.686-11.314 4.686s-8.292-1.664-11.314-4.686c-3.022-3.022-4.686-7.040-4.686-11.314s1.664-8.292 4.686-11.314c3.022-3.022 7.040-4.686 11.314-4.686s8.292 1.664 11.314 4.686zM25.899 25.9c1.971-1.971 3.281-4.425 3.821-7.096-0.421 0.62-0.824 0.85-1.073-0.538-0.257-2.262-2.335-0.817-3.641-1.621-1.375 0.927-4.466-1.802-3.941 1.276 0.81 1.388 4.375-1.858 2.598 1.079-1.134 2.050-4.145 6.592-3.753 8.946 0.049 3.43-3.504 0.715-4.729-0.422-0.824-2.279-0.281-6.262-2.434-7.378-2.338-0.102-4.344-0.314-5.25-2.927-0.545-1.87 0.58-4.653 2.584-5.083 2.933-1.843 3.98 2.158 6.731 2.232 0.854-0.894 3.182-1.178 3.375-2.18-1.805-0.318 2.29-1.517-0.173-2.199-1.358 0.16-2.234 1.409-1.512 2.467-2.632 0.614-2.717-3.809-5.247-2.414-0.064 2.206-4.132 0.715-1.407 0.268 0.936-0.409-1.527-1.594-0.196-1.379 0.654-0.036 2.854-0.807 2.259-1.325 1.225-0.761 2.255 1.822 3.454-0.059 0.866-1.446-0.363-1.713-1.448-0.98-0.612-0.685 1.080-2.165 2.573-2.804 0.497-0.213 0.973-0.329 1.336-0.296 0.752 0.868 2.142 1.019 2.215-0.104-1.862-0.892-3.915-1.363-6.040-1.363-3.051 0-5.952 0.969-8.353 2.762 0.645 0.296 1.012 0.664 0.39 1.134-0.483 1.439-2.443 3.371-4.163 3.098-0.893 1.54-1.482 3.238-1.733 5.017 1.441 0.477 1.773 1.42 1.464 1.736-0.734 0.64-1.185 1.548-1.418 2.541 0.469 2.87 1.818 5.515 3.915 7.612 2.644 2.644 6.16 4.1 9.899 4.1s7.255-1.456 9.899-4.1z"/> </symbol><symbol viewBox="0 0 32 32" id="icon-eye-blocked"><title>eye-blocked</title> <g id="eye-blocked-icomoon-ignore"> <line stroke-width="1" x1="" y1="" x2="" y2="" opacity=""/> </g> <path d="M26.229 9.263c2.426 1.72 4.418 4.034 5.771 6.737-2.973 5.936-9.021 10-16 10-1.955 0-3.837-0.319-5.599-0.909l2.436-2.436c1.033 0.228 2.093 0.345 3.163 0.345 2.799 0 5.527-0.796 7.889-2.303 1.88-1.199 3.473-2.805 4.67-4.697-1.158-1.83-2.688-3.392-4.489-4.578l2.159-2.159zM16 21.813c-0.71 0-1.399-0.093-2.054-0.267l9.787-9.787c0.174 0.655 0.267 1.344 0.267 2.054 0 4.418-3.582 8-8 8zM30 0h-1.679l-6.863 6.863c-1.721-0.56-3.555-0.863-5.458-0.863-6.979 0-13.028 4.064-16 10 1.333 2.662 3.285 4.947 5.662 6.658l-5.662 5.662v1.679h1.679l28.321-28.321v-1.679zM13 9.813c1.501 0 2.745 1.103 2.965 2.543l-3.423 3.423c-1.44-0.22-2.543-1.464-2.543-2.965 0-1.657 1.343-3 3-3zM3.441 16c1.197-1.891 2.79-3.498 4.67-4.697 0.122-0.078 0.246-0.154 0.371-0.228-0.311 0.854-0.482 1.776-0.482 2.737 0 1.829 0.614 3.514 1.647 4.861l-1.83 1.83c-1.752-1.176-3.242-2.712-4.376-4.503z"/> </symbol><symbol viewBox="0 0 32 32" id="icon-facebook"><title>facebook</title> <g id="facebook-icomoon-ignore"> <line stroke-width="1" x1="" y1="" x2="" y2="" opacity=""/> </g> <path d="M16 0c8.837 0 16 7.163 16 16 0 8.159-6.107 14.892-14 15.876v-11.876h5.5l0.5-4h-6v-2c0-1.105 0.895-2 2-2h4v-4h-4c-3.314 0-6 2.686-6 6v2h-3v4h3v11.876c-7.893-0.984-14-7.717-14-15.876 0-8.837 7.163-16 16-16z"/> </symbol><symbol viewBox="0 0 32 32" id="icon-github"><title>github</title> <g id="github-icomoon-ignore"> <line stroke-width="1" x1="" y1="" x2="" y2="" opacity=""/> </g> <path d="M0 17.388c0 1.45 0.136 2.762 0.407 3.935s0.647 2.193 1.127 3.059c0.48 0.866 1.090 1.627 1.831 2.285s1.544 1.195 2.41 1.612c0.866 0.417 1.854 0.756 2.965 1.017s2.245 0.443 3.403 0.548c1.158 0.104 2.431 0.156 3.818 0.156 1.398 0 2.676-0.052 3.834-0.156s2.295-0.287 3.411-0.548c1.116-0.261 2.11-0.6 2.981-1.017s1.68-0.954 2.425-1.612c0.746-0.657 1.361-1.419 1.846-2.285s0.863-1.886 1.134-3.059c0.271-1.174 0.407-2.486 0.407-3.935 0-2.587-0.866-4.825-2.597-6.713 0.094-0.25 0.18-0.535 0.258-0.853s0.151-0.772 0.219-1.361c0.068-0.589 0.042-1.27-0.078-2.042s-0.342-1.56-0.665-2.363l-0.235-0.047c-0.167-0.031-0.441-0.023-0.822 0.024s-0.824 0.141-1.33 0.282c-0.506 0.141-1.158 0.412-1.956 0.814s-1.64 0.905-2.527 1.51c-1.523-0.417-3.615-0.626-6.275-0.626-2.65 0-4.736 0.209-6.259 0.626-0.887-0.605-1.734-1.108-2.543-1.51s-1.453-0.673-1.933-0.814c-0.48-0.141-0.928-0.232-1.346-0.274s-0.681-0.055-0.79-0.039c-0.11 0.016-0.196 0.034-0.258 0.055-0.323 0.803-0.545 1.591-0.665 2.363s-0.146 1.453-0.078 2.042c0.068 0.589 0.141 1.043 0.219 1.361s0.164 0.602 0.258 0.853c-1.732 1.888-2.598 4.126-2.598 6.713zM3.928 21.315c0-1.502 0.683-2.879 2.050-4.131 0.407-0.376 0.881-0.66 1.424-0.853s1.155-0.302 1.839-0.329c0.683-0.026 1.338-0.021 1.964 0.016s1.398 0.086 2.316 0.149c0.918 0.063 1.711 0.094 2.379 0.094s1.46-0.031 2.378-0.094c0.918-0.063 1.69-0.112 2.316-0.149s1.28-0.042 1.964-0.016c0.683 0.026 1.296 0.136 1.839 0.329s1.017 0.477 1.424 0.853c1.367 1.231 2.050 2.608 2.050 4.131 0 0.897-0.112 1.693-0.337 2.386s-0.511 1.275-0.861 1.745c-0.349 0.469-0.834 0.868-1.455 1.197s-1.226 0.582-1.815 0.759c-0.589 0.177-1.346 0.316-2.269 0.415s-1.747 0.159-2.472 0.18c-0.725 0.021-1.646 0.031-2.762 0.031s-2.037-0.010-2.762-0.031c-0.725-0.021-1.549-0.081-2.472-0.18s-1.68-0.237-2.269-0.415c-0.589-0.177-1.194-0.43-1.815-0.759s-1.106-0.728-1.455-1.197c-0.349-0.469-0.636-1.051-0.861-1.745s-0.336-1.489-0.336-2.386zM20 21c0-1.657 0.895-3 2-3s2 1.343 2 3c0 1.657-0.895 3-2 3s-2-1.343-2-3zM8 21c0-1.657 0.895-3 2-3s2 1.343 2 3c0 1.657-0.895 3-2 3s-2-1.343-2-3z"/> </symbol><symbol viewBox="0 0 32 32" id="icon-googleplus"><title>googleplus</title> <g id="googleplus-icomoon-ignore"> <line stroke-width="1" x1="" y1="" x2="" y2="" opacity=""/> </g> <path d="M13.656 25.568c0 2.346-1.45 4.2-5.555 4.349-2.406-1.368-4.422-3.342-5.841-5.715 0.74-1.828 3.053-3.22 5.697-3.191 0.751 0.008 1.45 0.129 2.086 0.334 1.747 1.215 3.156 1.974 3.51 3.358 0.066 0.28 0.103 0.569 0.103 0.864zM16 0c-4.623 0-8.787 1.962-11.708 5.097 1.154-0.639 2.517-1.020 3.966-1.020 2.096 0 8.014 0 8.014 0l-1.791 1.879h-2.103c1.484 0.85 2.274 2.601 2.274 4.532 0 1.772-0.982 3.199-2.368 4.283-1.352 1.056-1.609 1.499-1.609 2.398 0 0.767 1.616 1.909 2.359 2.467 2.588 1.941 3.112 3.162 3.112 5.59 0 2.46-2.154 4.91-5.808 5.742 1.761 0.667 3.67 1.033 5.664 1.033 8.837 0 16-7.163 16-16s-7.163-16-16-16zM24 12v4h-2v-4h-4v-2h4v-4h2v4h4v2h-4zM11.43 10.608c0.373 2.837-0.87 4.662-3.029 4.598-2.16-0.065-4.213-2.047-4.586-4.883-0.373-2.837 1.076-5.008 3.235-4.944s4.007 2.392 4.379 5.228zM6.903 20.065c-2.334 0-4.316 0.805-5.714 1.996-0.766-1.869-1.189-3.915-1.189-6.060 0-1.774 0.289-3.48 0.822-5.075 0.23 3.108 2.417 5.506 6.030 5.506 0.266 0 0.524-0.014 0.777-0.032-0.248 0.476-0.426 1.006-0.426 1.562 0 0.937 0.515 1.471 1.152 2.090-0.481 0-0.946 0.013-1.454 0.013z"/> </symbol><symbol viewBox="0 0 32 32" id="icon-home"><title>home</title> <g id="home-icomoon-ignore"> <line stroke-width="1" x1="" y1="" x2="" y2="" opacity=""/> </g> <path d="M32 19l-6-6v-9h-4v5l-6-6-16 16v1h4v10h10v-6h4v6h10v-10h4z"/> </symbol><symbol viewBox="0 0 100 100" id="icon-loader"><title>loader</title> <rect x="0" y="0" width="100" height="100" class="bk"/> <rect x="15" y="15" width="20" height="20" class="sq"> <animate attributeName="fill" from="#545454" to="#fff" repeatCount="indefinite" dur="1s" begin="0.0s" values="#fff;#fff;#545454;#545454" keyTimes="0;0.1;0.2;1"/> </rect> <rect x="40" y="15" width="20" height="20" class="sq"> <animate attributeName="fill" from="#545454" to="#fff" repeatCount="indefinite" dur="1s" begin="0.125s" values="#fff;#fff;#545454;#545454" keyTimes="0;0.1;0.2;1"/> </rect> <rect x="65" y="15" width="20" height="20" class="sq"> <animate attributeName="fill" from="#545454" to="#fff" repeatCount="indefinite" dur="1s" begin="0.25s" values="#fff;#fff;#545454;#545454" keyTimes="0;0.1;0.2;1"/> </rect> <rect x="15" y="40" width="20" height="20" class="sq"> <animate attributeName="fill" from="#545454" to="#fff" repeatCount="indefinite" dur="1s" begin="0.875s" values="#fff;#fff;#545454;#545454" keyTimes="0;0.1;0.2;1"/> </rect> <rect x="65" y="40" width="20" height="20" class="sq"> <animate attributeName="fill" from="#545454" to="#fff" repeatCount="indefinite" dur="1s" begin="0.375" values="#fff;#fff;#545454;#545454" keyTimes="0;0.1;0.2;1"/> </rect> <rect x="15" y="65" width="20" height="20" class="sq"> <animate attributeName="fill" from="#545454" to="#fff" repeatCount="indefinite" dur="1s" begin="0.75s" values="#fff;#fff;#545454;#545454" keyTimes="0;0.1;0.2;1"/> </rect> <rect x="40" y="65" width="20" height="20" class="sq"> <animate attributeName="fill" from="#545454" to="#fff" repeatCount="indefinite" dur="1s" begin="0.625s" values="#fff;#fff;#545454;#545454" keyTimes="0;0.1;0.2;1"/> </rect> <rect x="65" y="65" width="20" height="20" class="sq"> <animate attributeName="fill" from="#545454" to="#fff" repeatCount="indefinite" dur="1s" begin="0.5s" values="#fff;#fff;#545454;#545454" keyTimes="0;0.1;0.2;1"/> </rect> </symbol><symbol viewBox="0 0 32 32" id="icon-mail"><title>mail</title> <g id="mail-icomoon-ignore"> <line stroke-width="1" x1="" y1="" x2="" y2="" opacity=""/> </g> <path d="M16 0c-8.837 0-16 7.163-16 16s7.163 16 16 16 16-7.163 16-16-7.163-16-16-16zM8 8h16c0.286 0 0.563 0.061 0.817 0.177l-8.817 10.286-8.817-10.287c0.254-0.116 0.531-0.177 0.817-0.177zM6 22v-12c0-0.042 0.002-0.084 0.004-0.125l5.864 6.842-5.8 5.8c-0.045-0.167-0.069-0.34-0.069-0.517zM24 24h-16c-0.177 0-0.35-0.024-0.517-0.069l5.691-5.691 2.826 3.297 2.826-3.297 5.691 5.691c-0.167 0.045-0.34 0.069-0.517 0.069zM26 22c0 0.177-0.024 0.35-0.069 0.517l-5.8-5.8 5.865-6.842c0.003 0.041 0.004 0.083 0.004 0.125v12z"/> </symbol><symbol viewBox="0 0 32 32" id="icon-menu"><title>menu</title> <g id="menu-icomoon-ignore"> <line stroke-width="1" x1="" y1="" x2="" y2="" opacity=""/> </g> <path d="M2 6h28v6h-28zM2 14h28v6h-28zM2 22h28v6h-28z"/> </symbol><symbol viewBox="0 0 32 32" id="icon-print"><title>print</title> <g id="print-icomoon-ignore"> <line stroke-width="1" x1="" y1="" x2="" y2="" opacity=""/> </g> <path d="M8 2h16v4h-16zM30 8h-28c-1.1 0-2 0.9-2 2v10c0 1.1 0.9 2 2 2h6v8h16v-8h6c1.1 0 2-0.9 2-2v-10c0-1.1-0.9-2-2-2zM22 28h-12v-10h12v10zM30.45 11c0 0.801-0.649 1.45-1.45 1.45s-1.45-0.649-1.45-1.45 0.649-1.45 1.45-1.45c0.801 0 1.45 0.649 1.45 1.45z"/> </symbol><symbol viewBox="0 0 32 32" id="icon-twitter"><title>twitter</title> <g id="twitter-icomoon-ignore"> <line stroke-width="1" x1="" y1="" x2="" y2="" opacity=""/> </g> <path d="M16 0c-8.837 0-16 7.163-16 16s7.163 16 16 16 16-7.163 16-16-7.163-16-16-16zM25.195 11.284c0.009 0.203 0.014 0.408 0.014 0.614 0 6.269-4.772 13.499-13.499 13.499-2.679 0-5.173-0.785-7.273-2.132 0.371 0.044 0.749 0.066 1.132 0.066 2.223 0 4.268-0.759 5.892-2.031-2.076-0.038-3.828-1.41-4.432-3.295 0.29 0.055 0.587 0.085 0.893 0.085 0.433 0 0.852-0.058 1.25-0.166-2.17-0.436-3.806-2.354-3.806-4.652 0-0.020 0-0.040 0-0.060 0.64 0.355 1.371 0.569 2.149 0.593-1.273-0.851-2.111-2.303-2.111-3.949 0-0.869 0.234-1.684 0.642-2.385 2.34 2.87 5.836 4.759 9.779 4.957-0.081-0.347-0.123-0.709-0.123-1.081 0-2.62 2.124-4.744 4.744-4.744 1.365 0 2.598 0.576 3.463 1.498 1.081-0.213 2.096-0.608 3.013-1.151-0.354 1.108-1.107 2.038-2.086 2.625 0.96-0.115 1.874-0.37 2.725-0.747-0.636 0.951-1.44 1.787-2.367 2.456z"/> </symbol></svg>