<svg style="display:none;"><symbol viewBox="0 0 24 24" id="icon-arrow-down"><title>arrow-down</title> <path d="M20.016 12l-8.016 8.016-8.016-8.016 1.453-1.406 5.578 5.578v-12.188h1.969v12.188l5.625-5.578z"/> </symbol><symbol viewBox="0 0 32 32" id="icon-arrow-left"><title>arrow-left</title> <g id="arrow-left-icomoon-ignore"> <line stroke-width="1" x1="" y1="" x2="" y2="" opacity=""/> </g> <path d="M12.586 4.586l-10 10c-0.781 0.781-0.781 2.047 0 2.828l10 10c0.781 0.781 2.047 0.781 2.828 0s0.781-2.047 0-2.828l-6.586-6.586h19.172c1.105 0 2-0.895 2-2s-0.895-2-2-2h-19.172l6.586-6.586c0.39-0.391 0.586-0.902 0.586-1.414s-0.195-1.024-0.586-1.414c-0.781-0.781-2.047-0.781-2.828 0z"/> </symbol><symbol viewBox="0 0 32 32" id="icon-arrow-right"><title>arrow-right</title> <g id="arrow-right-icomoon-ignore"> <line stroke-width="1" x1="" y1="" x2="" y2="" opacity=""/> </g> <path d="M19.414 27.414l10-10c0.781-0.781 0.781-2.047 0-2.828l-10-10c-0.781-0.781-2.047-0.781-2.828 0s-0.781 2.047 0 2.828l6.586 6.586h-19.172c-1.105 0-2 0.895-2 2s0.895 2 2 2h19.172l-6.586 6.586c-0.39 0.39-0.586 0.902-0.586 1.414s0.195 1.024 0.586 1.414c0.781 0.781 2.047 0.781 2.828 0z"/> </symbol><symbol viewBox="0 0 24 24" id="icon-arrow-up"><title>arrow-up</title> <path d="M3.984 12l8.016-8.016 8.016 8.016-1.453 1.406-5.578-5.578v12.188h-1.969v-12.188l-5.625 5.578z"/> </symbol><symbol viewBox="0 0 32 32" id="icon-bookmark"><title>bookmark</title> <g id="bookmark-icomoon-ignore"> <line stroke-width="1" x1="" y1="" x2="" y2="" opacity=""/> </g> <path d="M6 0v32l10-10 10 10v-32z"/> </symbol><symbol viewBox="0 0 32 32" id="icon-camera"><title>camera</title> <g id="camera-icomoon-ignore"> <line stroke-width="1" x1="" y1="" x2="" y2="" opacity=""/> </g> <path d="M9.5 19c0 3.59 2.91 6.5 6.5 6.5s6.5-2.91 6.5-6.5-2.91-6.5-6.5-6.5-6.5 2.91-6.5 6.5zM30 8h-7c-0.5-2-1-4-3-4h-8c-2 0-2.5 2-3 4h-7c-1.1 0-2 0.9-2 2v18c0 1.1 0.9 2 2 2h28c1.1 0 2-0.9 2-2v-18c0-1.1-0.9-2-2-2zM16 27.875c-4.902 0-8.875-3.973-8.875-8.875s3.973-8.875 8.875-8.875c4.902 0 8.875 3.973 8.875 8.875s-3.973 8.875-8.875 8.875zM30 14h-4v-2h4v2z"/> </symbol><symbol viewBox="0 0 32 32" id="icon-disk"><title>disk</title> <g id="disk-icomoon-ignore"> <line stroke-width="1" x1="" y1="" x2="" y2="" opacity=""/> </g> <path d="M28 0h-28v32h32v-28l-4-4zM16 4h4v8h-4v-8zM28 28h-24v-24h2v10h18v-10h2.343l1.657 1.657v22.343z"/> </symbol><symbol viewBox="0 0 32 32" id="icon-earth"><title>earth</title> <g id="earth-icomoon-ignore"> <line stroke-width="1" x1="" y1="" x2="" y2="" opacity=""/> </g> <path d="M27.314 4.686c3.022 3.022 4.686 7.040 4.686 11.314s-1.664 8.292-4.686 11.314c-3.022 3.022-7.040 4.686-11.314 4.686s-8.292-1.664-11.314-4.686c-3.022-3.022-4.686-7.040-4.686-11.314s1.664-8.292 4.686-11.314c3.022-3.022 7.040-4.686 11.314-4.686s8.292 1.664 11.314 4.686zM25.899 25.9c1.971-1.971 3.281-4.425 3.821-7.096-0.421 0.62-0.824 0.85-1.073-0.538-0.257-2.262-2.335-0.817-3.641-1.621-1.375 0.927-4.466-1.802-3.941 1.276 0.81 1.388 4.375-1.858 2.598 1.079-1.134 2.050-4.145 6.592-3.753 8.946 0.049 3.43-3.504 0.715-4.729-0.422-0.824-2.279-0.281-6.262-2.434-7.378-2.338-0.102-4.344-0.314-5.25-2.927-0.545-1.87 0.58-4.653 2.584-5.083 2.933-1.843 3.98 2.158 6.731 2.232 0.854-0.894 3.182-1.178 3.375-2.18-1.805-0.318 2.29-1.517-0.173-2.199-1.358 0.16-2.234 1.409-1.512 2.467-2.632 0.614-2.717-3.809-5.247-2.414-0.064 2.206-4.132 0.715-1.407 0.268 0.936-0.409-1.527-1.594-0.196-1.379 0.654-0.036 2.854-0.807 2.259-1.325 1.225-0.761 2.255 1.822 3.454-0.059 0.866-1.446-0.363-1.713-1.448-0.98-0.612-0.685 1.080-2.165 2.573-2.804 0.497-0.213 0.973-0.329 1.336-0.296 0.752 0.868 2.142 1.019 2.215-0.104-1.862-0.892-3.915-1.363-6.040-1.363-3.051 0-5.952 0.969-8.353 2.762 0.645 0.296 1.012 0.664 0.39 1.134-0.483 1.439-2.443 3.371-4.163 3.098-0.893 1.54-1.482 3.238-1.733 5.017 1.441 0.477 1.773 1.42 1.464 1.736-0.734 0.64-1.185 1.548-1.418 2.541 0.469 2.87 1.818 5.515 3.915 7.612 2.644 2.644 6.16 4.1 9.899 4.1s7.255-1.456 9.899-4.1z"/> </symbol><symbol viewBox="0 0 32 32" id="icon-eye-blocked"><title>eye-blocked</title> <g id="eye-blocked-icomoon-ignore"> <line stroke-width="1" x1="" y1="" x2="" y2="" opacity=""/> </g> <path d="M26.229 9.263c2.426 1.72 4.418 4.034 5.771 6.737-2.973 5.936-9.021 10-16 10-1.955 0-3.837-0.319-5.599-0.909l2.436-2.436c1.033 0.228 2.093 0.345 3.163 0.345 2.799 0 5.527-0.796 7.889-2.303 1.88-1.199 3.473-2.805 4.67-4.697-1.158-1.83-2.688-3.392-4.489-4.578l2.159-2.159zM16 21.813c-0.71 0-1.399-0.093-2.054-0.267l9.787-9.787c0.174 0.655 0.267 1.344 0.267 2.054 0 4.418-3.582 8-8 8zM30 0h-1.679l-6.863 6.863c-1.721-0.56-3.555-0.863-5.458-0.863-6.979 0-13.028 4.064-16 10 1.333 2.662 3.285 4.947 5.662 6.658l-5.662 5.662v1.679h1.679l28.321-28.321v-1.679zM13 9.813c1.501 0 2.745 1.103 2.965 2.543l-3.423 3.423c-1.44-0.22-2.543-1.464-2.543-2.965 0-1.657 1.343-3 3-3zM3.441 16c1.197-1.891 2.79-3.498 4.67-4.697 0.122-0.078 0.246-0.154 0.371-0.228-0.311 0.854-0.482 1.776-0.482 2.737 0 1.829 0.614 3.514 1.647 4.861l-1.83 1.83c-1.752-1.176-3.242-2.712-4.376-4.503z"/> </symbol><symbol viewBox="0 0 16 16" id="icon-facebook"><title>facebook</title> <path d="M9.5 3h2.5v-3h-2.5c-1.93 0-3.5 1.57-3.5 3.5v1.5h-2v3h2v8h3v-8h2.5l0.5-3h-3v-1.5c0-0.271 0.229-0.5 0.5-0.5z"/> </symbol><symbol viewBox="0 0 32 32" id="icon-file-zip"><title>file-zip</title> <path d="M28.681 7.159c-0.694-0.947-1.662-2.053-2.724-3.116s-2.169-2.030-3.116-2.724c-1.612-1.182-2.393-1.319-2.841-1.319h-15.5c-1.378 0-2.5 1.121-2.5 2.5v27c0 1.378 1.121 2.5 2.5 2.5h23c1.378 0 2.5-1.122 2.5-2.5v-19.5c0-0.448-0.137-1.23-1.319-2.841v0 0zM24.543 5.457c0.959 0.959 1.712 1.825 2.268 2.543h-4.811v-4.811c0.718 0.556 1.584 1.309 2.543 2.268v0 0zM28 29.5c0 0.271-0.229 0.5-0.5 0.5h-23c-0.271 0-0.5-0.229-0.5-0.5v-27c0-0.271 0.229-0.5 0.5-0.5 0 0 15.499-0 15.5 0v7c0 0.552 0.448 1 1 1h7v19.5z"/> <path d="M8 2h4v2h-4v-2z"/> <path d="M12 4h4v2h-4v-2z"/> <path d="M8 6h4v2h-4v-2z"/> <path d="M12 8h4v2h-4v-2z"/> <path d="M8 10h4v2h-4v-2z"/> <path d="M12 12h4v2h-4v-2z"/> <path d="M8 14h4v2h-4v-2z"/> <path d="M12 16h4v2h-4v-2z"/> <path d="M8 26.5c0 0.825 0.675 1.5 1.5 1.5h5c0.825 0 1.5-0.675 1.5-1.5v-5c0-0.825-0.675-1.5-1.5-1.5h-2.5v-2h-4v8.5zM14 24v2h-4v-2h4z"/> </symbol><symbol viewBox="0 0 32 32" id="icon-github"><title>github</title> <g id="github-icomoon-ignore"> <line stroke-width="1" x1="" y1="" x2="" y2="" opacity=""/> </g> <path d="M0 17.388c0 1.45 0.136 2.762 0.407 3.935s0.647 2.193 1.127 3.059c0.48 0.866 1.090 1.627 1.831 2.285s1.544 1.195 2.41 1.612c0.866 0.417 1.854 0.756 2.965 1.017s2.245 0.443 3.403 0.548c1.158 0.104 2.431 0.156 3.818 0.156 1.398 0 2.676-0.052 3.834-0.156s2.295-0.287 3.411-0.548c1.116-0.261 2.11-0.6 2.981-1.017s1.68-0.954 2.425-1.612c0.746-0.657 1.361-1.419 1.846-2.285s0.863-1.886 1.134-3.059c0.271-1.174 0.407-2.486 0.407-3.935 0-2.587-0.866-4.825-2.597-6.713 0.094-0.25 0.18-0.535 0.258-0.853s0.151-0.772 0.219-1.361c0.068-0.589 0.042-1.27-0.078-2.042s-0.342-1.56-0.665-2.363l-0.235-0.047c-0.167-0.031-0.441-0.023-0.822 0.024s-0.824 0.141-1.33 0.282c-0.506 0.141-1.158 0.412-1.956 0.814s-1.64 0.905-2.527 1.51c-1.523-0.417-3.615-0.626-6.275-0.626-2.65 0-4.736 0.209-6.259 0.626-0.887-0.605-1.734-1.108-2.543-1.51s-1.453-0.673-1.933-0.814c-0.48-0.141-0.928-0.232-1.346-0.274s-0.681-0.055-0.79-0.039c-0.11 0.016-0.196 0.034-0.258 0.055-0.323 0.803-0.545 1.591-0.665 2.363s-0.146 1.453-0.078 2.042c0.068 0.589 0.141 1.043 0.219 1.361s0.164 0.602 0.258 0.853c-1.732 1.888-2.598 4.126-2.598 6.713zM3.928 21.315c0-1.502 0.683-2.879 2.050-4.131 0.407-0.376 0.881-0.66 1.424-0.853s1.155-0.302 1.839-0.329c0.683-0.026 1.338-0.021 1.964 0.016s1.398 0.086 2.316 0.149c0.918 0.063 1.711 0.094 2.379 0.094s1.46-0.031 2.378-0.094c0.918-0.063 1.69-0.112 2.316-0.149s1.28-0.042 1.964-0.016c0.683 0.026 1.296 0.136 1.839 0.329s1.017 0.477 1.424 0.853c1.367 1.231 2.050 2.608 2.050 4.131 0 0.897-0.112 1.693-0.337 2.386s-0.511 1.275-0.861 1.745c-0.349 0.469-0.834 0.868-1.455 1.197s-1.226 0.582-1.815 0.759c-0.589 0.177-1.346 0.316-2.269 0.415s-1.747 0.159-2.472 0.18c-0.725 0.021-1.646 0.031-2.762 0.031s-2.037-0.010-2.762-0.031c-0.725-0.021-1.549-0.081-2.472-0.18s-1.68-0.237-2.269-0.415c-0.589-0.177-1.194-0.43-1.815-0.759s-1.106-0.728-1.455-1.197c-0.349-0.469-0.636-1.051-0.861-1.745s-0.336-1.489-0.336-2.386zM20 21c0-1.657 0.895-3 2-3s2 1.343 2 3c0 1.657-0.895 3-2 3s-2-1.343-2-3zM8 21c0-1.657 0.895-3 2-3s2 1.343 2 3c0 1.657-0.895 3-2 3s-2-1.343-2-3z"/> </symbol><symbol viewBox="0 0 16 16" id="icon-googleplus"><title>googleplus</title> <path d="M5.091 7.147v1.747h2.888c-0.116 0.75-0.872 2.197-2.888 2.197-1.737 0-3.156-1.441-3.156-3.216s1.419-3.216 3.156-3.216c0.991 0 1.65 0.422 2.028 0.784l1.381-1.331c-0.888-0.828-2.037-1.331-3.409-1.331-2.816 0.003-5.091 2.278-5.091 5.094s2.275 5.091 5.091 5.091c2.937 0 4.888-2.066 4.888-4.975 0-0.334-0.037-0.591-0.081-0.844h-4.806z"/> <path d="M16 7h-1.5v-1.5h-1.5v1.5h-1.5v1.5h1.5v1.5h1.5v-1.5h1.5z"/> </symbol><symbol viewBox="0 0 32 32" id="icon-home"><title>home</title> <g id="home-icomoon-ignore"> <line stroke-width="1" x1="" y1="" x2="" y2="" opacity=""/> </g> <path d="M32 19l-6-6v-9h-4v5l-6-6-16 16v1h4v10h10v-6h4v6h10v-10h4z"/> </symbol><symbol viewBox="0 0 100 100" id="icon-loader"><title>loader</title> <rect x="0" y="0" width="100" height="100" class="bk"/> <rect x="15" y="15" width="20" height="20" class="sq"> <animate attributeName="fill" from="#545454" to="#fff" repeatCount="indefinite" dur="1s" begin="0.0s" values="#fff;#fff;#545454;#545454" keyTimes="0;0.1;0.2;1"/> </rect> <rect x="40" y="15" width="20" height="20" class="sq"> <animate attributeName="fill" from="#545454" to="#fff" repeatCount="indefinite" dur="1s" begin="0.125s" values="#fff;#fff;#545454;#545454" keyTimes="0;0.1;0.2;1"/> </rect> <rect x="65" y="15" width="20" height="20" class="sq"> <animate attributeName="fill" from="#545454" to="#fff" repeatCount="indefinite" dur="1s" begin="0.25s" values="#fff;#fff;#545454;#545454" keyTimes="0;0.1;0.2;1"/> </rect> <rect x="15" y="40" width="20" height="20" class="sq"> <animate attributeName="fill" from="#545454" to="#fff" repeatCount="indefinite" dur="1s" begin="0.875s" values="#fff;#fff;#545454;#545454" keyTimes="0;0.1;0.2;1"/> </rect> <rect x="65" y="40" width="20" height="20" class="sq"> <animate attributeName="fill" from="#545454" to="#fff" repeatCount="indefinite" dur="1s" begin="0.375" values="#fff;#fff;#545454;#545454" keyTimes="0;0.1;0.2;1"/> </rect> <rect x="15" y="65" width="20" height="20" class="sq"> <animate attributeName="fill" from="#545454" to="#fff" repeatCount="indefinite" dur="1s" begin="0.75s" values="#fff;#fff;#545454;#545454" keyTimes="0;0.1;0.2;1"/> </rect> <rect x="40" y="65" width="20" height="20" class="sq"> <animate attributeName="fill" from="#545454" to="#fff" repeatCount="indefinite" dur="1s" begin="0.625s" values="#fff;#fff;#545454;#545454" keyTimes="0;0.1;0.2;1"/> </rect> <rect x="65" y="65" width="20" height="20" class="sq"> <animate attributeName="fill" from="#545454" to="#fff" repeatCount="indefinite" dur="1s" begin="0.5s" values="#fff;#fff;#545454;#545454" keyTimes="0;0.1;0.2;1"/> </rect> </symbol><symbol viewBox="0 0 32 32" id="icon-mail"><title>mail</title> <g id="mail-icomoon-ignore"> <line stroke-width="1" x1="" y1="" x2="" y2="" opacity=""/> </g> <path d="M16 0c-8.837 0-16 7.163-16 16s7.163 16 16 16 16-7.163 16-16-7.163-16-16-16zM8 8h16c0.286 0 0.563 0.061 0.817 0.177l-8.817 10.286-8.817-10.287c0.254-0.116 0.531-0.177 0.817-0.177zM6 22v-12c0-0.042 0.002-0.084 0.004-0.125l5.864 6.842-5.8 5.8c-0.045-0.167-0.069-0.34-0.069-0.517zM24 24h-16c-0.177 0-0.35-0.024-0.517-0.069l5.691-5.691 2.826 3.297 2.826-3.297 5.691 5.691c-0.167 0.045-0.34 0.069-0.517 0.069zM26 22c0 0.177-0.024 0.35-0.069 0.517l-5.8-5.8 5.865-6.842c0.003 0.041 0.004 0.083 0.004 0.125v12z"/> </symbol><symbol viewBox="0 0 32 32" id="icon-menu"><title>menu</title> <g id="menu-icomoon-ignore"> <line stroke-width="1" x1="" y1="" x2="" y2="" opacity=""/> </g> <path d="M2 6h28v6h-28zM2 14h28v6h-28zM2 22h28v6h-28z"/> </symbol><symbol viewBox="0 0 32 32" id="icon-print"><title>print</title> <g id="print-icomoon-ignore"> <line stroke-width="1" x1="" y1="" x2="" y2="" opacity=""/> </g> <path d="M8 2h16v4h-16zM30 8h-28c-1.1 0-2 0.9-2 2v10c0 1.1 0.9 2 2 2h6v8h16v-8h6c1.1 0 2-0.9 2-2v-10c0-1.1-0.9-2-2-2zM22 28h-12v-10h12v10zM30.45 11c0 0.801-0.649 1.45-1.45 1.45s-1.45-0.649-1.45-1.45 0.649-1.45 1.45-1.45c0.801 0 1.45 0.649 1.45 1.45z"/> </symbol><symbol viewBox="0 0 16 16" id="icon-twitter"><title>twitter</title> <path d="M16 3.538c-0.588 0.263-1.222 0.438-1.884 0.516 0.678-0.406 1.197-1.050 1.444-1.816-0.634 0.375-1.338 0.65-2.084 0.797-0.6-0.638-1.453-1.034-2.397-1.034-1.813 0-3.281 1.469-3.281 3.281 0 0.256 0.028 0.506 0.084 0.747-2.728-0.138-5.147-1.444-6.766-3.431-0.281 0.484-0.444 1.050-0.444 1.65 0 1.138 0.578 2.144 1.459 2.731-0.538-0.016-1.044-0.166-1.488-0.409 0 0.013 0 0.028 0 0.041 0 1.591 1.131 2.919 2.634 3.219-0.275 0.075-0.566 0.116-0.866 0.116-0.212 0-0.416-0.022-0.619-0.059 0.419 1.303 1.631 2.253 3.066 2.281-1.125 0.881-2.538 1.406-4.078 1.406-0.266 0-0.525-0.016-0.784-0.047 1.456 0.934 3.181 1.475 5.034 1.475 6.037 0 9.341-5.003 9.341-9.341 0-0.144-0.003-0.284-0.009-0.425 0.641-0.459 1.197-1.038 1.637-1.697z"/> </symbol></svg>