<svg xmlns="http://www.w3.org/2000/svg" aria-hidden="true" focusable="false" fill="none" viewBox="0 0 718 539">
  <path fill="currentColor" d="M112.267.536C99.84.817 90.111 13.495 89.865 22.937v37.334H74.933C33.955 60.27.267 93.959.267 134.937v328.534c0 40.978 33.688 74.666 74.666 74.666H642.4c40.979 0 74.667-33.688 74.667-74.666V134.937c0-40.978-33.688-74.666-74.667-74.666H269.067V22.937c0-11.729-10.672-22.4-22.402-22.4H112.267Zm22.401 44.803h89.599V60.27h-89.599V45.339Zm-59.735 59.734H642.4c16.932 0 29.864 12.933 29.864 29.864v328.534c0 16.932-12.932 29.864-29.864 29.864H74.933c-16.932 0-29.864-12.932-29.864-29.864V134.937c0-16.932 12.932-29.864 29.864-29.864Zm283.734 22.402c-94.579 0-171.734 77.15-171.734 171.733 0 94.579 77.156 171.733 171.734 171.733 94.584 0 171.733-77.15 171.733-171.733 0-94.579-77.151-171.733-171.733-171.733Zm231.466 14.932c-20.62 0-37.333 16.713-37.333 37.333 0 20.62 16.713 37.333 37.333 37.333 20.62 0 37.334-16.713 37.334-37.333 0-20.62-16.714-37.333-37.334-37.333Zm-231.466 29.864c70.369 0 126.932 56.562 126.932 126.932 0 70.369-56.563 126.932-126.932 126.932-70.37 0-126.932-56.568-126.932-126.932 0-70.37 56.568-126.932 126.932-126.932Zm0 22.401c-57.47 0-104.531 47.068-104.531 104.531 0 57.469 47.068 104.53 104.531 104.53 57.469 0 104.53-47.068 104.53-104.53 0-57.47-47.068-104.531-104.53-104.531Zm0 44.803c33.254 0 59.734 26.478 59.734 59.734s-26.478 59.735-59.734 59.735-59.735-26.479-59.735-59.735 26.479-59.734 59.735-59.734Z"/>
</svg>
