<svg fill="none" focusable="false" aria-hidden="true" xmlns="http://www.w3.org/2000/svg" viewBox="0 0 36 29"><path d="m11.811 7.535-6.983 6.984 6.983 6.981a2.001 2.001 0 0 1-1.414 3.414 1.988 1.988 0 0 1-1.414-.586L.586 15.932a1.997 1.997 0 0 1 0-2.827l8.397-8.398a2.001 2.001 0 0 1 2.828 0c.78.781.78 2.045 0 2.828Zm22.636 5.569-8.396-8.398a2 2 0 1 0-2.828 2.828l6.982 6.984-6.982 6.982a2 2 0 1 0 2.828 2.828l8.396-8.396a2 2 0 0 0 0-2.828ZM21.012.831a1.998 1.998 0 0 0-2.435 1.441l-6 23.498a2.003 2.003 0 0 0 1.939 2.497c.894 0 1.706-.603 1.937-1.505l6-23.498A2 2 0 0 0 21.012.831Z" fill="currentColor"/></svg>