<svg aria-hidden="true" xmlns="http://www.w3.org/2000/svg" viewBox="0 0 324.244 324.244" style="enable-background:new 0 0 324.244 324.244" xml:space="preserve"><path fill="currentColor" d="M109.303 1.207c-8.441 0-15.289 22.436-15.289 22.436 0 2.986.413 5.825 1.137 8.431 4.623-1.044 9.415-1.643 14.348-1.643s9.725.598 14.348 1.643a31.56 31.56 0 0 0 1.137-8.431s-6.842-22.436-15.289-22.436h-.392zM204.003 95.907v-.397c0-8.441-22.436-15.289-22.436-15.289-2.986 0-5.825.413-8.431 1.137 1.044 4.623 1.643 9.415 1.643 14.348 0 4.933-.598 9.725-1.643 14.348a31.56 31.56 0 0 0 8.431 1.137c0 .005 22.436-6.837 22.436-15.284zM95.151 159.348a31.56 31.56 0 0 0-1.137 8.431s6.842 22.436 15.289 22.436h.397c8.441 0 15.289-22.436 15.289-22.436 0-2.986-.413-5.825-1.137-8.431-4.623 1.044-9.415 1.643-14.348 1.643-4.938-.006-9.73-.604-14.353-1.643zM45.949 165.658c6.239 5.689 26.412-6.271 26.412-6.271a31.617 31.617 0 0 0 4.852-7.016 65.711 65.711 0 0 1-21.191-19.336 31.881 31.881 0 0 0-6.543 5.472s-10.068 21.185-3.829 26.874l.299.277zM45.949 25.765l-.294.267c-6.239 5.689 3.829 26.874 3.829 26.874a31.284 31.284 0 0 0 6.543 5.472 65.712 65.712 0 0 1 21.191-19.336 31.594 31.594 0 0 0-4.852-7.016c.001.01-20.178-11.95-26.417-6.261zM162.976 58.383a31.881 31.881 0 0 0 6.543-5.472s10.068-21.185 3.829-26.874l-.294-.267c-6.244-5.695-26.418 6.266-26.418 6.266a31.617 31.617 0 0 0-4.852 7.016 65.747 65.747 0 0 1 21.192 19.331zM173.049 165.658l.294-.267c6.239-5.689-3.829-26.874-3.829-26.874a31.284 31.284 0 0 0-6.543-5.472 65.712 65.712 0 0 1-21.191 19.336 31.594 31.594 0 0 0 4.852 7.016c.005-.011 20.179 11.95 26.417 6.261zM15.001 95.51v.397c0 8.441 22.436 15.289 22.436 15.289 2.986 0 5.825-.413 8.431-1.137-1.044-4.623-1.643-9.415-1.643-14.348 0-4.933.598-9.725 1.643-14.348a31.56 31.56 0 0 0-8.431-1.137c-.005 0-22.436 6.843-22.436 15.284zM152.207 129.341a54.102 54.102 0 0 0 10.911-24.764c.473-2.894.783-5.842.783-8.866 0-3.03-.31-5.978-.783-8.866a54.102 54.102 0 0 0-10.911-24.764 54.745 54.745 0 0 0-13.119-11.982c-6.157-4.003-13.179-6.761-20.717-8.001-2.894-.473-5.842-.783-8.866-.783-3.03 0-5.978.31-8.866.783-7.544 1.24-14.56 3.998-20.717 8.001a54.633 54.633 0 0 0-13.119 11.982 54.102 54.102 0 0 0-10.911 24.764c-.473 2.894-.783 5.842-.783 8.866 0 3.03.31 5.978.783 8.866a54.102 54.102 0 0 0 10.911 24.764 54.499 54.499 0 0 0 13.119 11.982c6.157 4.003 13.179 6.761 20.717 8.001 2.894.473 5.842.783 8.866.783 3.03 0 5.978-.31 8.866-.783 7.544-1.24 14.56-3.998 20.717-8.001a54.592 54.592 0 0 0 13.119-11.982zM263.131 213.179c-4.863-4.863-11.324-7.539-18.205-7.539-5.58 0-10.9 1.768-15.3 5.037l-74.113 38.558 19.869 11.123 19.869 11.123 19.249 10.775 34.01 19.037 30.377 17.003 3.633 2.034h41.723l-59.264-105.3-1.848-1.851zM271.388 320.328l-34.01-19.037-34.01-19.037-13.886-7.772-19.869-11.123-19.869-11.123-67.874-37.992c-2.29-2.29-5.292-3.437-8.295-3.437s-6.005 1.148-8.295 3.437L0 323.037h276.228l-4.84-2.709z"/></svg>