<svg viewBox="0 0 96 72" aria-hidden="true" focusable="false" fill="none" xmlns="http://www.w3.org/2000/svg"><path d="M94.539 48.039C73.316 1.749 46.063.414 43.025.414c-.238 0-.363.007-.363.007l-.393.06C11.581 8.316 1.169 45.5.741 47.079l-.469 1.729 1.668.655c18.011 7.08 32.299 20.609 32.441 20.746l1.442 1.377 1.381-1.437c15.198-15.805 55.276-19.25 55.678-19.283l2.846-.232-1.189-2.595ZM44.058 4.457c5.27.389 25.758 4.184 43.702 38.803a57.186 57.186 0 0 0-7.451-.226c-6.402-18.55-14.877-24.662-15.717-25.23-7.469-5.434-15.324-1.082-15.657-.895l-.183.117c-8.479 6.123-5.69 30-4.724 36.686a100.606 100.606 0 0 0-5.933 3.436c.59-15.725 2.137-42.9 5.963-52.691Zm-10.203 59.94c-5.133-4.34-15.784-12.536-28.732-17.96.081-.243.172-.516.272-.807 3.987 1.25 14.726 5.337 28.529 16.277l-.069 2.49Zm.234-7.426C21.088 47.105 11.075 43.213 6.797 41.868 10.833 31.77 20.793 12.344 39.501 5.534c-3.459 11.965-4.865 36.686-5.412 51.437Zm3.78 7.22c.018-.66.037-1.378.062-2.153 4.476-3.015 27.207-17.365 50.375-14.707-10.181 1.243-35.966 5.414-50.437 16.86Z" fill="currentColor"/></svg>