<svg viewBox="0 0 26 26" aria-hidden="true" focusable="false" fill="none" xmlns="http://www.w3.org/2000/svg"><path fill-rule="evenodd" clip-rule="evenodd" d="m13.08 5.334.627-.627a1 1 0 0 0-1.414-1.414l-1.346 1.346-1.639-.533.4-.399a1 1 0 0 0-1.415-1.414L7.175 3.411 3.47 2.205a.997.997 0 0 0-.756.056l-1.723.861 10.48 6.962a1 1 0 0 1 .21 1.479l-6.198 7.323a1 1 0 0 1-1.079.303l-2.548-.849a.999.999 0 0 0-1.023.241L.414 19 7 25.586l.42-.419a.999.999 0 0 0 .24-1.023l-.849-2.548a1 1 0 0 1 .303-1.079l7.323-6.197a1.003 1.003 0 0 1 1.479.21l6.962 10.479.861-1.723a.997.997 0 0 0 .056-.756l-1.206-3.705 1.118-1.118a1 1 0 0 0-1.414-1.414l-.399.399-.533-1.639 1.346-1.346a1 1 0 0 0-1.414-1.414l-.627.627-.78-2.396a1 1 0 0 1 .305-1.073l5.455-4.615c.224-.19.354-.469.354-.764V1a.997.997 0 0 0-1-1h-3.072a.998.998 0 0 0-.764.354L16.55 5.809a1 1 0 0 1-1.073.305l-2.396-.78Z" fill="currentColor"/></svg>