<svg viewBox="0 0 97 95" focusable="false" aria-hidden="true" fill="none" xmlns="http://www.w3.org/2000/svg"><path d="M63.213 10.042c-.135 5.106-4.453 9.17-9.434 8.888-4.78-.27-8.62-4.315-8.64-9.114-.023-5.028 4.213-9.285 9.183-9.228 5.002.054 9.027 4.339 8.891 9.454ZM31.87 6.408a3.611 3.611 0 0 0-5.208.92l-4.07 6.167c-1.165 1.766-2.329 4.929-2.585 7.029l-2.36 19.33c-.256 2.1 1.248 4.063 3.343 4.364l8.827 1.268c2.094.3 4.283-1.117 4.863-3.151l6.92-24.235c.58-2.034-.334-4.728-2.034-5.989L31.87 6.408Zm62.829 46.957c-2.236-1.288-4.471-2.203-6.86-2.96a33.75 33.75 0 0 0-7.386-1.44c-.285-.022-.573-.026-.86-.04a2.088 2.088 0 0 0-.7-.128c-.194 0-.379.034-.557.084a27.732 27.732 0 0 0-5.594.517 26.556 26.556 0 0 0-7.429 2.675l-.061.032a3.1 3.1 0 0 0-.288.18c-1.366.956 2.1 5.9 3.466 4.944 2.458-1.723 5.318-2.872 8.365-3.43v38.17a2.097 2.097 0 0 0 4.195 0V53.415c1.968-.02 3.965.166 5.943.547 2.176.422 4.422 1.08 6.388 1.938l.08.035a1.443 1.443 0 0 0 1.298-2.571ZM80.1 40.4l-29.01-18.038a5.737 5.737 0 0 0-8.188 2.363 7.109 7.109 0 0 0-1.479 2.836l-4.935 19.036h14.797l2.66-10.26 22.602 10.607a3.727 3.727 0 0 0 5.263-2.77 3.727 3.727 0 0 0-1.71-3.774ZM62.208 65.6 51.779 55.19h-15.4c-.19.305-.149.736-.15 1.371-.002.853.261 1.36 1.474 2.303L53.856 71.74V89.55a5.014 5.014 0 1 0 10.027 0V69.337a5.007 5.007 0 0 0-1.464-3.53l-.211-.209Z" fill="currentColor"/><path d="M3.029 76.034a2.147 2.147 0 0 1-.252-4.282C21.642 69.498 31.903 50.1 32.004 49.905a2.15 2.15 0 0 1 1.908-1.159h16.93l-.727 4.297H35.17C32.502 57.6 21.785 73.807 3.287 76.02c-.086.01-.172.014-.258.014Zm37.478-6.199-9.985 21.32a4.63 4.63 0 0 1-6.156 2.229 4.639 4.639 0 0 1-2.293-6.02l9.285-21.632a5.013 5.013 0 1 1 9.15 4.103Z" fill="currentColor"/></svg>