<svg xmlns="http://www.w3.org/2000/svg" viewBox="0 0 100 125"><path fill="currentColor" d="M64.548 12.936c-.134 5.053-4.406 9.074-9.335 8.795-4.73-.268-8.529-4.27-8.55-9.018-.022-4.975 4.17-9.188 9.087-9.131 4.95.053 8.932 4.293 8.798 9.354zM33.534 9.341a3.573 3.573 0 00-5.154.91l-4.026 6.102c-1.153 1.747-2.305 4.877-2.558 6.955l-2.335 19.126c-.254 2.078 1.234 4.021 3.307 4.319l8.734 1.254c2.072.298 4.238-1.105 4.812-3.118l6.848-23.979c.574-2.013-.331-4.679-2.013-5.926l-7.615-5.643zM95.701 55.803c-2.212-1.274-4.424-2.179-6.787-2.928a33.4 33.4 0 00-7.309-1.426c-.282-.021-.567-.025-.851-.039a2.066 2.066 0 00-.692-.127c-.192 0-.375.034-.552.083a27.447 27.447 0 00-5.535.512 26.276 26.276 0 00-7.35 2.647l-.061.032a3.063 3.063 0 00-.285.178c-1.351.946 2.079 5.838 3.43 4.892 2.432-1.705 5.262-2.842 8.277-3.394V94a2.075 2.075 0 104.15 0V55.854c1.948-.02 3.924.164 5.881.541 2.153.418 4.375 1.068 6.321 1.918l.078.034a1.428 1.428 0 001.285-2.544zM81.258 42.975L52.553 25.127a5.678 5.678 0 00-8.102 2.338 7.034 7.034 0 00-1.463 2.806l-4.883 18.836h14.641l2.632-10.152L77.742 49.45a3.688 3.688 0 004.701-1.393 3.689 3.689 0 00-1.185-5.082zM63.553 67.908L53.234 57.61H37.996c-.188.302-.147.728-.148 1.357-.002.844.258 1.345 1.458 2.278l15.983 12.741v17.621a4.961 4.961 0 009.922 0v-20a4.955 4.955 0 00-1.449-3.493l-.209-.206z"/><path fill="currentColor" d="M4.997 78.234a2.125 2.125 0 01-.249-4.237c18.666-2.231 28.819-21.424 28.919-21.617a2.127 2.127 0 011.888-1.147h16.752l-.72 4.252H36.801C34.16 59.993 23.556 76.03 5.252 78.22a2.436 2.436 0 01-.255.014zM42.081 72.1l-9.88 21.095a4.582 4.582 0 01-6.092 2.206 4.59 4.59 0 01-2.268-5.956l9.187-21.405a4.961 4.961 0 119.053 4.06z"/></svg>