<svg viewBox="0 0 22 20" fill="none" xmlns="http://www.w3.org/2000/svg"><path d="M13.378 0c-.088.142-.14.48.106.479 1.037.407 1.866 1.211 2.622 2-.064.205-.2.387-.292.58-.266.322-.738.194-1.078.368-.387.226-.64.633-.978.926C9.302 8.883 4.844 13.41.387 17.938.205 18.571.11 19.237 0 19.89c.1.254.372-.012.556-.007.483-.063.99-.096 1.457-.261 4.771-4.837 9.55-9.671 14.295-14.536.159-.272-.012-.594.067-.885-.016-.219.081-.437.283-.526.08-.092.327-.271.343-.032.326.984 1.219 1.594 1.773 2.42 1.013 1.315 1.85 2.817 2.19 4.467.106.202.565.158.445-.138-.555-3.13-2.185-6.079-4.654-8.058-.855-.702-1.567-1.621-2.6-2.086-.246-.102-.51-.25-.777-.248z" fill="currentColor"/></svg>