<svg viewBox="0 0 32 51" aria-hidden="true" focusable="false" fill="none" xmlns="http://www.w3.org/2000/svg"><path d="M26.07 4.2a4.08 4.08 0 1 1-8.158 0 4.079 4.079 0 1 1 8.158 0ZM12.404 7.266a3.948 3.948 0 0 0-7.816-.833L.587 22.076c-.048.18-.067.36-.074.538-.008.099-.017.197-.018.295a3.953 3.953 0 0 0 3.906 3.995c1.629.016 3.229-1.076 3.651-2.357.101-.278 4.213-16.27 4.224-16.33.078-.306.125-.622.128-.952Zm18.221 14.109-6.653-2.37-2.985-8.194c-.741-1.432-1.934-2.428-3.34-2.687-3.299-.616-4.451 3.15-4.451 3.15l-2.456 10.32 6.97-4.065-.633-1.368a.59.59 0 0 1 .29-.786.592.592 0 0 1 .787.289l.832 1.794c.001.005.005.008.007.01.007.01.006.019.01.029l1.606 3.463.161.328c.094.185.434.532.749.66l6.461 2.466-4.126 7.094-5.41-5.08 1.083-4.975-1.316-2.842-7.852 4.58L7.32 35.946.889 46.008c-.238.335-.358.734-.358 1.21-.095.807.12 1.506.641 2.104.521.592 1.188.935 1.994 1.032 1.187.092 2.089-.383 2.705-1.427l6.861-10.767c.142-.288.331-.688.571-1.217l1.364-5.746 6.341 5.2-7.496 12.886a.745.745 0 0 0 1.012 1.018.745.745 0 0 0 .272-.27L21.2 39.02l-.009 8.728c.287 1.378 1.165 2.138 2.637 2.282.806.047 1.506-.19 2.1-.712.592-.527.912-1.166.959-1.923v-.643l-.054-10.887c0-.86-.199-1.718-.745-2.263l-1.12-1.056 4.464-7.68c1.186.072 2.038-.603 2.21-1.774.115-.773-.401-1.488-1.017-1.72Z" fill="currentColor"/></svg>