<svg viewBox="0 0 15 20" fill="none" xmlns="http://www.w3.org/2000/svg"><path d="M3.162 18.446a1.25 1.25 0 002.426.607l.986-3.944-2.062-2.062-1.35 5.4zm.582-7.66L5.352 4.57a.613.613 0 00-.466-.744c-1.714-.411-3.451.588-3.88 2.233L.02 9.892a.613.613 0 00.466.745l2.483.595a.642.642 0 00.776-.447zm10.63-4.536h-.624a.625.625 0 00-.625.625V7.5h-1.358L9.94 5.673A2.279 2.279 0 008.317 5a2.293 2.293 0 00-2.228 1.739l-1.052 4.208a1.25 1.25 0 00.33 1.187l3.383 3.383v3.233a1.25 1.25 0 002.5 0v-3.233c0-.667-.26-1.295-.733-1.767L8.69 11.92c.005-.019.019-.034.024-.054l.777-3.108.876.876c.234.234.552.366.883.366h1.875v9.375c0 .345.28.625.625.625h.625c.346 0 .625-.28.625-.625v-12.5a.624.624 0 00-.624-.625zm-5-2.5a1.875 1.875 0 100-3.75 1.875 1.875 0 000 3.75z" fill="currentColor"/></svg>