<svg viewBox="0 0 27 43" fill="none" xmlns="http://www.w3.org/2000/svg" focusable="false"><path d="M26.375 29.012V13.188C26.375 5.917 20.459 0 13.187 0 5.917 0 0 5.916 0 13.188v15.824C0 36.285 5.916 42.2 13.188 42.2c7.271 0 13.187-5.917 13.187-13.188zm-23.738 0V13.188c0-5.816 4.733-10.55 10.55-10.55 5.818 0 10.55 4.733 10.55 10.55v15.825c0 5.818-4.732 10.55-10.55 10.55-5.816 0-10.55-4.732-10.55-10.55z" fill="currentColor"/><path d="M16.645 14.752v-3.957a3.3 3.3 0 00-3.297-3.297 3.3 3.3 0 00-3.296 3.297v3.957a3.3 3.3 0 003.296 3.296 3.3 3.3 0 003.297-3.296zm-3.956 0v-3.957c0-.362.297-.66.66-.66.362 0 .659.298.659.66v3.957a.66.66 0 01-1.319 0z" fill="currentColor"/></svg>