<svg viewBox="0 0 20 20" fill="none" xmlns="http://www.w3.org/2000/svg"><path d="M16.868 3.75A1.875 1.875 0 1016.865 0a1.875 1.875 0 00.003 3.75zm2.85 13.914a.933.933 0 00-1.324 0c-.472.472-1.19.601-1.76.34L11.33 15.26l1.921-2.884a1.876 1.876 0 00-.234-2.367L11.44 8.427 7.262 6.353a2.493 2.493 0 00.691 2.125l2.933 2.938-1.792 2.688-7.728-3.997a.938.938 0 00-1.26.403.934.934 0 00.401 1.262l15.303 7.911a3.475 3.475 0 003.909-.7.937.937 0 00-.001-1.32zM4.685 3.579l-.449.879a1.528 1.528 0 001.671-.188l1.843.915c-.003.004-.003.007-.007.011l4.47 2.22 1.265-.508.25.746c.156.473.492.86.937 1.082l2.269 1.133a1.25 1.25 0 001.117-2.235l-2.035-1.02-.667-2c-.316-.945-1.597-2.211-3.3-1.531l-3.17 1.27-2.44-1.212a1.515 1.515 0 00-.817-1.39l-.433.847h-.008l-1.343-.273a.2.2 0 00-.195.066.204.204 0 00.02.29l1.022.898z" fill="currentColor"/></svg>