<svg xmlns="http://www.w3.org/2000/svg" aria-hidden="true" viewBox="0 0 491 807.5" fill-rule="evenodd" clip-rule="evenodd" shape-rendering="geometricPrecision" text-rendering="geometricPrecision" image-rendering="optimizeQuality"><path fill="currentColor" d="M491 584c0-3-7-6-18-7V261c4-1 8-4 10-7 8-11 7-26-4-34l-56-43s-1-1-2-1l-80-41c-21-11-108-12-127 1l-99 63c-12 7-15 23-8 35l40 67c2 4 5 7 9 9L20 568c-10-4-18-5-20-2-1 4 4 10 12 16-2 4-1 8 3 11 4 2 9 0 11-4 9 4 18 5 19 2 2-3-3-10-12-15l139-263 6-3c12-5 17-19 11-31l3-6c2-3 1-8-3-10-2-1-5-1-8 0l-15-31 39-22v136l-44 189c-20-15-35-27-37-28-6-4-14-3-18 3-5 6-3 14 2 18 2 1 128 94 140 103 10 8 24 15 38 15 8 0 16-3 23-9 6-5 6-14 1-19s-13-5-18-1c-7 6-21-1-28-7-5-3-22-16-43-32 5-2 9-8 9-14 0-8-6-14-13-16 19-62 37-124 56-185l45 79-12 88c-17-12-30-22-32-23-6-4-14-3-18 3s-3 14 3 18c1 1 127 94 139 103 10 8 24 15 38 15 8 0 17-3 24-9 5-5 5-14 0-19-4-5-13-5-18-1-6 6-21-1-28-7-4-3-23-17-45-33 6-3 10-9 10-15 0-10-7-17-16-17h-1l22-104c1-6 0-13-3-19l-1-2-43-89V198l58 25 57 36c2 2 4 2 6 3v315c-11 1-18 4-18 7 0 4 7 7 18 8 0 4 3 8 7 8 5 0 8-4 8-8 11-1 18-4 18-8zM287 119c33 4 62-19 66-52S333 4 301 0c-33-3-63 20-67 53s20 63 53 66z"/></svg>