<svg viewBox="0 0 82 80" aria-hidden="true" focusable="false" fill="none" xmlns="http://www.w3.org/2000/svg"><path d="M71.167 17.167a8.333 8.333 0 1 0 0-16.667 8.333 8.333 0 0 0 0 16.667ZM34.917 19.25s7.5-10.417 18.75-10.417c5.833 0 9.166 3.75 9.166 8.75 0 .834-.416 15.417-.416 15.417l-3.334-9.583-10.416 6.25-13.75-10.417Z" fill="currentColor"/><path d="M50.333 27.167 13.25 3.833" stroke="currentColor" stroke-width="6.25" stroke-miterlimit="10"/><path d="M77 71.333c-5.833 2.917-14.167 1.25-20-2.083L4.917 39.667.75 46.75l52.083 29.583c3.334 2.084 7.5 2.917 11.25 2.917s7.084-.833 10.417-2.5L81.167 73 77 71.333Z" fill="currentColor"/><path d="m75.75 42.583-12.5-7.916c-2.917-1.667-4.583-5-4.583-8.75V18M30.333 59.25l17.5-10c3.334-2.083 3.75-6.667.417-8.75-5.833-4.167-13.75-9.167-13.75-9.167" stroke="currentColor" stroke-width="8.333" stroke-miterlimit="10"/><path d="M49.5 36.75 30.333 23.417l-1.666 1.666C24.5 29.25 25.75 35.917 30.75 38.417l17.917 8.75.833-10.417Z" fill="currentColor"/></svg>