<svg viewBox="0 0 17 20" fill="none" xmlns="http://www.w3.org/2000/svg"><path d="M10.625 3.75a1.875 1.875 0 100-3.75 1.875 1.875 0 000 3.75zm-6.184 8.652l-.578 1.348H1.25a1.25 1.25 0 000 2.5h3.026c.752 0 1.429-.447 1.723-1.136l.343-.802-.417-.246a3.72 3.72 0 01-1.484-1.664zm10.56-3.652h-1.72l-1.018-2.08a3.748 3.748 0 00-2.414-1.99l-2.776-.826a3.734 3.734 0 00-3.158.67l-1.55 1.188a1.249 1.249 0 101.521 1.983l1.55-1.188c.3-.23.682-.312.988-.24l.574.171-1.463 3.414a2.507 2.507 0 001.027 3.137l3.32 1.96-1.073 3.427a1.25 1.25 0 002.385.747l1.236-3.948a1.883 1.883 0 00-.845-2.125L9.193 11.64l1.223-3.058.791 1.618c.313.639.974 1.05 1.684 1.05h2.11a1.25 1.25 0 000-2.5z" fill="currentColor"/></svg>