<svg xmlns="http://www.w3.org/2000/svg" aria-hidden="true" viewBox="0 0 100 125"><path fill="currentColor" d="M88.8 52.4s-13.2-.7-16.8-.7c-3.6 0-6.1-7.8-7.1-8.4-1.1-.5-5.3 7.4-7.8 11.2 2.2.5 12.5 7 12.4 9.1s-.7 25.3-.7 25.3.9 5.2-5.8 5.2-5.6-5.2-5.6-5.2.1-17.9 0-19c-.1-1.1-7.8-5-9.9-5-2 0-9.3 12.7-12.5 13.3-3.2.6-26.3-9-26.3-9S3 66.1 5.8 60.8c2.7-5.2 8.1-2.1 8.1-2.1s15 6.3 16.4 6c1.4-.4 3.8-6.5 6.7-9.9.4-1.5 7.8-12.1 7.8-12.1s4-6.9 3.6-7.9c-.4-1.1-3.8 1.1-3.8 1.1S39.8 41.1 33.2 46c-6.6 4.9-11.8-2.2-7.9-5.7 3.9-3.5 14.7-16 20.2-17 5.5-1.1 14.3-.1 21 3.5 6.7 3.6 9.6 13.1 10.7 14.6 1.1 1.4 11.7.9 11.7.9s6.1-.4 6.1 5-6.2 5.1-6.2 5.1zm-17.1-27c-5.4 0-9.9-4.4-9.9-9.8s4.4-9.8 9.9-9.8c5.4 0 9.9 4.4 9.9 9.8s-4.4 9.8-9.9 9.8z" fill-rule="evenodd" clip-rule="evenodd"/></svg>