<svg aria-hidden="true" xmlns="http://www.w3.org/2000/svg" viewBox="0 0 100 100" focusable="false"><path fill="currentColor" d="M96.539 62.039C75.316 15.75 48.063 14.414 45.025 14.414c-.238 0-.363.007-.363.007l-.393.06C13.581 22.316 3.169 59.5 2.741 61.079l-.469 1.729 1.668.655c18.011 7.08 32.299 20.609 32.441 20.746l1.442 1.377 1.381-1.437c15.198-15.805 55.276-19.25 55.678-19.283l2.846-.232-1.189-2.595zM46.058 18.457c5.27.389 25.758 4.184 43.702 38.803a57.164 57.164 0 00-7.451-.226c-6.402-18.55-14.877-24.662-15.717-25.23-7.469-5.434-15.324-1.082-15.657-.895l-.183.117c-8.479 6.123-5.69 30-4.724 36.686a100.63 100.63 0 00-5.933 3.436c.59-15.725 2.137-42.9 5.963-52.691zM35.855 78.398c-5.133-4.341-15.784-12.537-28.732-17.96.081-.244.172-.517.272-.808 3.987 1.25 14.726 5.337 28.529 16.277l-.069 2.491zm.234-7.427C23.088 61.105 13.075 57.213 8.797 55.868c4.036-10.097 13.996-29.524 32.704-36.334-3.459 11.965-4.865 36.686-5.412 51.437zm3.78 7.22c.018-.659.037-1.378.062-2.153 4.476-3.015 27.207-17.365 50.375-14.707-10.181 1.243-35.966 5.414-50.437 16.86z"/></svg>