<svg xmlns="http://www.w3.org/2000/svg" aria-hidden="true" viewBox="0 0 100 125" focusable="false"><switch><g><path fill="currentColor" d="M55.1 63.7c-1-.6-2-1.3-3-2.1v.1c-.4 3.4-1 7.6-1.7 9.1-2.3 4.5-9.7 19.9-9.8 20.1-1.1 2.3-.2 5.1 2.1 6.2.7.3 1.3.5 2 .5 1.7 0 3.4-1 4.2-2.6.1-.1 7.5-15.5 9.8-20 .9-1.8 1.4-4.2 1.9-6.8-1.5-1.4-3.1-2.7-4.4-3.6-.3-.4-.7-.7-1.1-.9z"/><path fill="currentColor" d="M88.6 48.5c-2.9-2.3-7.4-6.4-8.6-8.2-.3-.5-.7-1.4-1.1-2.3-2-4.4-5.8-12.5-14.2-12.5 0 0-4.5-.1-5.9-.1-9.5-.2-15.7 8.2-17.2 11.2-1.4 3-4.6 12.5-5.2 14.6-.4 1.3.1 2.7 1 3.5l-4.8 11.5-8.3-3.5c-1.6-.7-3.5.1-4.2 1.7l-9.8 23.5c-.7 1.6.1 3.5 1.7 4.2l7.7 3.2c-.6-1.6-.6-3.3 0-4.8 1-2.4 3.4-4 6-4 .9 0 1.7.2 2.5.5.6.3 1.2.6 1.7 1.1l7-16.6c.7-1.6-.1-3.5-1.7-4.2l4.9-11.6c1.5-.1 2.8-1.1 3.3-2.6.6-2 3.7-11.1 4.8-13.4.3-.7 1.4-2.3 3-3.8-1.6 6.7-1 15.9-.7 19.8.2 2.5 4.6 5.1 7.1 6.8 4.1 2.8 10.4 9.2 11.7 12.1 1 2.3 5.3 14.5 7.5 20 .7 1.8 2.5 3 4.3 3 .6 0 1.1-.1 1.7-.3 2.4-.9 3.6-3.6 2.6-6-.3-.7-6.3-17.4-7.6-20.4-1.1-2.6-5.8-8.3-8.9-11.6l-.2-.2c-.1-1.6 0-13.3 1.8-21.5.6 1.1 1.2 2.3 1.8 3.5.6 1.2 1 2.2 1.6 3.1 2.2 3.5 8.9 9 10.2 10 .7.5 1.5.8 2.2.8 1.1 0 2.1-.5 2.8-1.3 1.3-1.7 1.1-3.9-.5-5.2z"/><circle fill="currentColor" transform="rotate(-89.037 61.672 12.43) scale(1.00004)" cx="61.7" cy="12.4" r="9.9"/><circle fill="currentColor" transform="rotate(-67.333 25.739 93.028)" cx="25.7" cy="93" r="4.5"/></g></switch></svg>