<svg  viewBox="0 0 23 20" fill="none" xmlns="http://www.w3.org/2000/svg">
<path d="M18.7499 7.5H14.2854L10.18 0.314844C10.1252 0.219183 10.0462 0.139684 9.95084 0.0843955C9.85549 0.0291074 9.74722 -6.91121e-06 9.63701 1.23059e-09L7.07841 1.23059e-09C6.66318 1.23059e-09 6.36357 0.397266 6.47763 0.796484L8.39287 7.5H4.3749L2.6874 5.25C2.56943 5.09258 2.38388 5 2.1874 5H0.625287C0.218646 5 -0.0797911 5.38203 0.019037 5.77656L1.2499 10L0.019037 14.2234C-0.0797911 14.618 0.218646 15 0.625287 15H2.1874C2.38427 15 2.56943 14.9074 2.6874 14.75L4.3749 12.5H8.39287L6.47763 19.2031C6.36357 19.6023 6.66318 20 7.07841 20H9.63701C9.86123 20 10.0683 19.8797 10.1796 19.6852L14.2854 12.5H18.7499C20.1308 12.5 22.4999 11.3809 22.4999 10C22.4999 8.61914 20.1308 7.5 18.7499 7.5Z" fill="currentColor"/>
</svg>
