<?xml version="1.0" standalone="no"?>
<!DOCTYPE svg PUBLIC "-//W3C//DTD SVG 20010904//EN"
 "http://www.w3.org/TR/2001/REC-SVG-20010904/DTD/svg10.dtd">
<svg version="1.0" xmlns="http://www.w3.org/2000/svg"
 width="700.000000pt" height="700.000000pt" viewBox="0 0 700.000000 700.000000"
 preserveAspectRatio="xMidYMid meet">
<metadata>
Created by potrace 1.11, written by Peter Selinger 2001-2013
</metadata>
<g transform="translate(0.000000,700.000000) scale(0.100000,-0.100000)"
fill="#000000" stroke="none">
<path d="M4550 5481 c-37 -12 -566 -279 -705 -356 -551 -308 -876 -581 -966
-814 -34 -85 -32 -197 3 -274 60 -128 123 -176 418 -319 336 -163 445 -244
443 -324 -3 -97 -161 -259 -503 -515 -337 -253 -506 -369 -1029 -709 -255
-165 -481 -314 -502 -331 -117 -92 -99 -253 35 -315 59 -27 175 -32 237 -10
20 7 96 51 170 98 74 47 274 170 444 273 338 205 631 394 795 514 391 284 711
623 837 888 82 171 41 369 -106 520 -83 85 -167 136 -331 200 -258 100 -350
155 -350 209 0 52 62 146 165 250 163 165 331 266 800 479 269 123 362 172
404 215 131 135 31 332 -168 329 -37 0 -77 -4 -91 -8z"/>
</g>
</svg>
