<?xml version="1.0" standalone="no"?>
<!DOCTYPE svg PUBLIC "-//W3C//DTD SVG 20010904//EN"
 "http://www.w3.org/TR/2001/REC-SVG-20010904/DTD/svg10.dtd">
<svg version="1.0" xmlns="http://www.w3.org/2000/svg"
 width="700.000000pt" height="700.000000pt" viewBox="0 0 700.000000 700.000000"
 preserveAspectRatio="xMidYMid meet">
<metadata>
Created by potrace 1.11, written by Peter Selinger 2001-2013
</metadata>
<g transform="translate(0.000000,700.000000) scale(0.100000,-0.100000)"
fill="#000000" stroke="none">
<path d="M5739 6870 c-19 -5 -93 -38 -165 -73 -71 -35 -221 -110 -334 -166
-252 -124 -588 -299 -740 -384 -396 -221 -715 -423 -980 -620 -74 -56 -137
-103 -140 -106 -3 -4 -34 -31 -70 -61 -302 -253 -473 -497 -493 -700 -5 -55
15 -155 42 -208 31 -61 124 -156 208 -212 68 -46 249 -138 458 -235 734 -338
972 -574 892 -882 -52 -200 -260 -450 -603 -726 -196 -158 -901 -681 -1154
-856 -92 -64 -757 -507 -895 -596 -27 -18 -135 -88 -240 -155 -360 -232 -411
-265 -648 -422 -246 -164 -284 -198 -272 -247 14 -58 115 -97 229 -88 88 6
101 12 261 118 72 47 225 143 340 214 116 70 226 138 245 151 19 12 154 94
300 181 384 231 548 332 790 487 965 619 1549 1135 1936 1712 104 156 166 280
183 364 13 66 8 180 -12 248 -59 197 -232 384 -464 501 -58 29 -134 60 -381
155 -52 20 -108 42 -125 50 -172 78 -223 105 -294 152 -291 194 -292 432 -4
799 294 373 689 633 1571 1033 25 11 81 37 125 57 44 20 116 53 160 73 193 87
452 223 478 250 80 84 17 189 -117 197 -28 2 -67 -1 -87 -5z"/>
</g>
</svg>
