<?xml version="1.0" standalone="no"?>
<!DOCTYPE svg PUBLIC "-//W3C//DTD SVG 20010904//EN"
 "http://www.w3.org/TR/2001/REC-SVG-20010904/DTD/svg10.dtd">
<svg version="1.0" xmlns="http://www.w3.org/2000/svg"
 width="700.000000pt" height="700.000000pt" viewBox="0 0 700.000000 700.000000"
 preserveAspectRatio="xMidYMid meet">
<metadata>
Created by potrace 1.14, written by Peter Selinger 2001-2017
</metadata>
<g transform="translate(0.000000,700.000000) scale(0.100000,-0.100000)"
fill="#000000" stroke="none">
<path d="M0 3500 l0 -3500 3500 0 3500 0 0 3500 0 3500 -3500 0 -3500 0 0
-3500z m5367 2679 c103 -35 190 -115 234 -214 16 -38 21 -70 22 -131 0 -71 -4
-90 -31 -148 -55 -117 -110 -161 -356 -281 -116 -57 -305 -147 -421 -201 -470
-218 -720 -381 -875 -568 -50 -61 -110 -152 -110 -167 0 -14 182 -100 355
-168 228 -90 322 -146 446 -270 106 -106 166 -197 206 -313 34 -99 42 -254 19
-361 -41 -184 -250 -496 -516 -771 -376 -389 -755 -667 -1680 -1231 -151 -92
-365 -225 -475 -295 -110 -70 -216 -136 -235 -145 -132 -68 -341 -59 -474 19
-55 32 -122 107 -150 166 -32 71 -29 197 7 272 54 111 47 105 872 648 514 337
746 499 1114 778 407 308 525 412 609 534 47 69 48 81 5 118 -67 59 -185 130
-343 207 -429 208 -472 233 -577 341 -116 117 -186 308 -167 460 3 31 17 91
30 132 108 343 532 712 1329 1154 224 124 770 402 845 430 99 37 219 39 317 5z"/>
</g>
</svg>
