<?xml version="1.0" standalone="no"?>
<!DOCTYPE svg PUBLIC "-//W3C//DTD SVG 20010904//EN"
 "http://www.w3.org/TR/2001/REC-SVG-20010904/DTD/svg10.dtd">
<svg version="1.0" xmlns="http://www.w3.org/2000/svg"
 width="700.000000pt" height="700.000000pt" viewBox="0 0 700.000000 700.000000"
 preserveAspectRatio="xMidYMid meet">
<metadata>
Created by potrace 1.14, written by Peter Selinger 2001-2017
</metadata>
<g transform="translate(0.000000,700.000000) scale(0.100000,-0.100000)"
fill="#000000" stroke="none">
<path d="M0 3639 l0 -3361 28 19 c15 10 142 94 282 187 1521 1009 1576 1047
2142 1478 505 385 659 521 795 705 85 114 117 191 118 278 0 91 -26 145 -111
230 -108 108 -251 194 -639 386 -198 97 -394 200 -435 227 -223 150 -317 351
-265 569 74 313 437 675 1105 1101 313 199 664 392 1208 665 l403 202 97 0
c90 0 101 -2 151 -31 70 -39 110 -94 118 -161 5 -44 1 -61 -21 -107 -15 -31
-44 -69 -64 -86 -48 -40 -267 -150 -687 -346 -739 -344 -994 -499 -1265 -773
-188 -190 -298 -364 -308 -486 -7 -88 9 -124 81 -192 81 -75 216 -145 512
-263 323 -129 422 -187 551 -322 146 -152 215 -310 216 -488 0 -150 -48 -274
-187 -484 -301 -453 -737 -877 -1354 -1316 -310 -220 -605 -409 -1341 -861
-325 -199 -618 -384 -635 -400 -5 -5 1261 -9 3248 -9 l3257 0 0 3500 0 3500
-3500 0 -3500 0 0 -3361z"/>
</g>
</svg>
