<?xml version="1.0" standalone="no"?>
<!DOCTYPE svg PUBLIC "-//W3C//DTD SVG 20010904//EN"
 "http://www.w3.org/TR/2001/REC-SVG-20010904/DTD/svg10.dtd">
<svg version="1.0" xmlns="http://www.w3.org/2000/svg"
 width="348.000000pt" height="348.000000pt" viewBox="0 0 348.000000 348.000000"
 preserveAspectRatio="xMidYMid meet">
<metadata>
Created by potrace 1.14, written by Peter Selinger 2001-2017
</metadata>
<g transform="translate(0.000000,348.000000) scale(0.100000,-0.100000)"
fill="#000000" stroke="none">
<path d="M1510 3465 c-268 -37 -511 -130 -746 -286 -150 -100 -361 -311 -463
-463 -243 -365 -341 -777 -286 -1199 103 -786 716 -1399 1502 -1502 867 -114
1687 441 1908 1290 89 342 67 727 -59 1054 -93 240 -208 415 -400 607 -194
193 -368 308 -607 400 -258 100 -576 136 -849 99z m1036 -634 c108 -49 125
-176 34 -254 -22 -18 -125 -73 -228 -121 -261 -121 -368 -192 -440 -293 l-23
-32 24 -15 c13 -9 67 -34 122 -56 166 -68 249 -148 281 -270 25 -99 4 -166
-96 -308 -99 -140 -272 -297 -495 -447 -125 -84 -548 -347 -614 -382 -143 -75
-325 55 -257 185 24 45 60 73 351 264 326 215 619 431 693 513 29 31 52 60 52
65 0 19 -72 66 -202 131 -147 74 -208 119 -239 181 -93 182 54 382 453 616
114 67 392 212 437 228 51 18 99 17 147 -5z"/>
</g>
</svg>
