<?xml version="1.0" standalone="no"?>
<!DOCTYPE svg PUBLIC "-//W3C//DTD SVG 20010904//EN"
 "http://www.w3.org/TR/2001/REC-SVG-20010904/DTD/svg10.dtd">
<svg version="1.0" xmlns="http://www.w3.org/2000/svg"
 width="520.000000pt" height="520.000000pt" viewBox="0 0 520.000000 520.000000"
 preserveAspectRatio="xMidYMid meet">
<metadata>
Created by potrace 1.14, written by Peter Selinger 2001-2017
</metadata>
<g transform="translate(0.000000,520.000000) scale(0.100000,-0.100000)"
fill="#000000" stroke="none">
<path d="M2355 5129 c-1075 -111 -1958 -873 -2218 -1914 -58 -232 -71 -349
-71 -615 0 -266 13 -383 71 -615 227 -910 938 -1621 1848 -1848 232 -58 349
-71 615 -71 266 0 383 13 615 71 910 227 1621 938 1848 1848 58 232 71 349 71
615 0 266 -13 383 -71 615 -227 912 -941 1624 -1853 1849 -80 19 -192 43 -250
51 -126 19 -479 27 -605 14z m1631 -588 c185 -82 224 -303 77 -443 -49 -46
-119 -84 -378 -203 -405 -187 -582 -291 -710 -420 -62 -62 -135 -157 -135
-175 0 -12 80 -51 240 -115 183 -74 272 -127 354 -210 147 -150 202 -347 146
-527 -55 -179 -298 -487 -568 -720 -230 -198 -489 -377 -987 -683 -159 -98
-346 -214 -414 -258 -69 -44 -147 -89 -175 -100 -67 -26 -182 -27 -253 -3
-189 64 -249 271 -121 417 33 38 90 78 499 346 453 297 600 399 902 626 305
229 477 392 477 451 0 28 -142 116 -355 221 -115 56 -238 123 -273 149 -129
95 -199 237 -190 379 11 150 73 263 237 428 224 224 527 419 1116 720 138 70
271 132 295 137 65 16 158 8 216 -17z"/>
</g>
</svg>
