<?xml version="1.0" standalone="no"?>
<!DOCTYPE svg PUBLIC "-//W3C//DTD SVG 20010904//EN"
 "http://www.w3.org/TR/2001/REC-SVG-20010904/DTD/svg10.dtd">
<svg version="1.0" xmlns="http://www.w3.org/2000/svg"
 width="700.000000pt" height="700.000000pt" viewBox="0 0 700.000000 700.000000"
 preserveAspectRatio="xMidYMid meet">
<metadata>
Created by potrace 1.14, written by Peter Selinger 2001-2017
</metadata>
<g transform="translate(0.000000,700.000000) scale(0.100000,-0.100000)"
fill="#000000" stroke="none">
<path d="M0 3640 l0 -3360 268 178 c147 99 440 293 652 432 794 521 1304 885
1869 1334 324 257 501 458 561 636 38 111 14 194 -84 298 -118 125 -251 206
-694 423 -361 177 -428 217 -523 316 -100 103 -149 216 -149 343 0 426 572
945 1746 1584 136 75 411 217 609 317 l361 182 86 5 c62 3 99 0 135 -12 133
-44 198 -177 142 -292 -45 -93 -120 -137 -674 -394 -573 -266 -810 -391 -1030
-545 -265 -185 -476 -408 -577 -611 -72 -145 -63 -239 29 -325 89 -84 183
-133 498 -258 350 -140 441 -194 586 -349 139 -148 201 -292 203 -467 1 -125
-24 -212 -96 -340 -173 -307 -464 -652 -813 -964 -417 -373 -850 -674 -1825
-1271 -358 -219 -766 -475 -785 -491 -5 -5 1445 -9 3248 -9 l3257 0 0 3500 0
3500 -3500 0 -3500 0 0 -3360z"/>
</g>
</svg>
